<?xml version="1.0" encoding="UTF-8"?>
<svg width="131px" height="65px" viewBox="0 0 131 65" version="1.1" xmlns="http://www.w3.org/2000/svg" xmlns:xlink="http://www.w3.org/1999/xlink">
    <title>brands / Azul WHT</title>
    <defs>
        <filter id="filter-1">
            <feColorMatrix in="SourceGraphic" type="matrix" values="0 0 0 0 1.000000 0 0 0 0 1.000000 0 0 0 0 1.000000 0 0 0 1.000000 0"></feColorMatrix>
        </filter>
    </defs>
    <g id="Symbols" stroke="none" stroke-width="1" fill="none" fill-rule="evenodd">
        <g id="Footer-/-Corp" transform="translate(-323.000000, -114.000000)">
            <g id="Brand-Logos-WHT" transform="translate(122.000000, 103.000000)">
                <g id="brands-/-Azul-WHT" transform="translate(201.000000, 10.800000)" filter="url(#filter-1)">
                    <g>
                        <path d="M0.126,0.648 L0.126,49.5 L130.626,49.5 L130.626,0.648 L0.126,0.648 Z M128.484,47.448 L2.241,47.448 L2.241,2.763 L128.484,2.763 L128.484,47.448 Z" id="Shape" fill="#213E7B"></path>
                        <polygon id="Path" fill="#213E7B" points="86.535 24.021 73.71 24.021 73.71 10.332 71.685 10.332 71.685 26.046 88.56 26.046 88.56 10.332 86.535 10.332"></polygon>
                        <polygon id="Path" fill="#213E7B" points="41.688 25.902 57.15 25.902 57.15 23.877 46.044 23.877 57.258 10.476 41.832 10.476 41.832 12.51 52.911 12.51"></polygon>
                        <polygon id="Path" fill="#213E7B" points="118.683 24.021 105.381 24.021 105.381 10.332 103.356 10.332 103.356 26.046 118.683 26.046"></polygon>
                        <polygon id="Path" fill="#213E7B" fill-rule="nonzero" points="20.574 10.629 12.051 26.046 12.051 26.046 14.445 26.046 20.574 14.697 25.731 24.228 22.077 24.228 21.087 26.046 26.712 26.046 26.712 26.046 29.106 26.046 29.115 26.046"></polygon>
                        <path d="M15.102,32.76 C16.569,32.76 17.478,33.426 17.478,34.56 C17.4858843,35.3183953 16.9461679,35.9721362 16.2,36.108 C17.0996086,36.2157716 17.7611255,37.0032917 17.712,37.908 C17.712,39.114 16.731,39.843 15.138,39.843 L11.988,39.843 L11.988,32.76 L15.102,32.76 Z M13.221,35.694 L15.021,35.694 C15.777,35.694 16.236,35.334 16.236,34.74 C16.236,34.146 15.777,33.84 15.021,33.84 L13.221,33.84 L13.221,35.694 Z M13.221,38.772 L15.021,38.772 C15.921,38.772 16.506,38.412 16.506,37.746 C16.506,37.08 15.948,36.747 15.021,36.747 L13.221,36.747 L13.221,38.772 Z" id="Shape" fill="#213E7B" fill-rule="nonzero"></path>
                        <polygon id="Path" fill="#213E7B" fill-rule="nonzero" points="22.149 33.831 22.149 35.739 25.605 35.739 25.605 36.81 22.149 36.81 22.149 38.763 26.1 38.763 26.1 39.834 20.952 39.834 20.952 32.76 26.01 32.76 26.01 33.831"></polygon>
                        <path d="M30.384,38.241 L29.7,39.834 L28.458,39.834 L31.581,32.76 L32.805,32.76 L35.901,39.834 L34.632,39.834 L33.948,38.241 L30.384,38.241 Z M32.184,34.029 L30.852,37.179 L33.552,37.179 L32.184,34.029 Z" id="Shape" fill="#213E7B" fill-rule="nonzero"></path>
                        <path d="M44.271,33.822 L43.578,34.722 C43.0696947,34.1678679 42.3586566,33.8431929 41.607,33.822 C40.2301541,33.822 39.114,34.9381541 39.114,36.315 C39.114,37.6918459 40.2301541,38.808 41.607,38.808 C42.3459861,38.787279 43.0499118,38.4883516 43.578,37.971 L44.289,38.763 C43.5543278,39.4840837 42.5731182,39.8990871 41.544,39.924 C40.2578439,39.9159615 39.0736751,39.2223775 38.4375585,38.1045144 C37.801442,36.9866513 37.810019,35.6143391 38.4600585,34.5045144 C39.1100981,33.3946898 40.3028439,32.7159615 41.589,32.7239294 C42.5909091,32.7316133 43.5513921,33.1248312 44.271,33.822 Z" id="Path" fill="#213E7B" fill-rule="nonzero"></path>
                        <polygon id="Path" fill="#213E7B" fill-rule="nonzero" points="52.2 39.834 52.2 36.9 48.483 36.9 48.483 39.825 47.286 39.825 47.286 32.76 48.483 32.76 48.483 35.829 52.2 35.829 52.2 32.76 53.388 32.76 53.388 39.834"></polygon>
                        <path d="M64.674,37.692 L62.667,37.692 L62.667,39.825 L61.479,39.825 L61.479,32.76 L64.35,32.76 C66.15,32.76 67.203,33.66 67.203,35.172 C67.270789,36.1868216 66.6573344,37.1235337 65.7,37.467 L67.284,39.834 L65.97,39.834 L64.674,37.692 Z M64.35,36.63 C65.439,36.63 66.069,36.162 66.069,35.208 C66.069,34.254 65.439,33.831 64.35,33.831 L62.667,33.831 L62.667,36.63 L64.35,36.63 Z" id="Shape" fill="#213E7B" fill-rule="nonzero"></path>
                        <polygon id="Path" fill="#213E7B" fill-rule="nonzero" points="71.775 33.831 71.775 35.739 75.231 35.739 75.231 36.81 71.775 36.81 71.775 38.763 75.753 38.763 75.753 39.834 70.578 39.834 70.578 32.76 75.6 32.76 75.6 33.831"></polygon>
                        <path d="M83.808,33.435 L83.313,34.488 C82.6894968,34.0907073 81.9725789,33.8641488 81.234,33.831 C80.541,33.831 80.082,34.092 80.082,34.569 C80.082,36.117 83.907,35.289 83.8980159,37.836 C83.8980159,39.096 82.782,39.879 81.198,39.879 C80.1266732,39.8723502 79.0952063,39.4719361 78.3,38.754 L78.813,37.728 C79.4620398,38.3461764 80.3117413,38.7103342 81.207,38.754 C82.044,38.754 82.539,38.439 82.539,37.854 C82.539,36.27 78.714,37.152 78.714,34.632 C78.714,33.426 79.758,32.661 81.288,32.661 C82.1852097,32.6696486 83.0606226,32.9385254 83.808,33.435 L83.808,33.435 Z" id="Path" fill="#213E7B" fill-rule="nonzero"></path>
                        <path d="M93.996,36.297 C94.0584709,37.8281464 93.1837675,39.2434783 91.7863435,39.8723805 C90.3889195,40.5012827 88.749502,40.2174157 87.6448828,39.1552819 C86.5402636,38.0931481 86.1923486,36.4661184 86.7659876,35.0451151 C87.3396265,33.6241119 88.7195816,32.694599 90.252,32.697 C91.2314766,32.6577892 92.1845879,33.0196923 92.8911925,33.6991198 C93.5977971,34.3785473 93.9967845,35.3167392 93.996,36.297 Z M87.696,36.297 C87.7059075,37.6951813 88.8447925,38.8219933 90.243,38.8170165 C91.6237547,38.7971928 92.7294037,37.6661813 92.7178957,36.2853325 C92.7063878,34.9044836 91.5820421,33.7920568 90.2011491,33.7952582 C88.820256,33.7984734 87.7010915,34.9161126 87.696,36.297 L87.696,36.297 Z" id="Shape" fill="#213E7B" fill-rule="nonzero"></path>
                        <path d="M100.26,37.692 L98.253,37.692 L98.253,39.825 L97.065,39.825 L97.065,32.76 L99.9,32.76 C101.7,32.76 102.753,33.66 102.753,35.172 C102.825905,36.1773861 102.22909,37.1110535 101.286,37.467 L102.87,39.834 L101.52,39.834 L100.26,37.692 Z M99.9,36.63 C100.989,36.63 101.619,36.162 101.619,35.208 C101.619,34.254 100.989,33.831 99.9,33.831 L98.217,33.831 L98.217,36.63 L99.9,36.63 Z" id="Shape" fill="#213E7B" fill-rule="nonzero"></path>
                        <polygon id="Path" fill="#213E7B" fill-rule="nonzero" points="108.756 33.831 108.756 39.834 107.559 39.834 107.559 33.831 105.3 33.831 105.3 32.76 110.97 32.76 110.97 33.831"></polygon>
                        <path d="M118.611,33.435 L118.116,34.488 C117.495654,34.09105 116.781717,33.8644527 116.046,33.831 C115.344,33.831 114.894,34.092 114.894,34.569 C114.894,36.117 118.719,35.289 118.701,37.836 C118.701,39.096 117.594,39.879 116.001,39.879 C114.929833,39.8715114 113.898654,39.471209 113.103,38.754 L113.625,37.728 C114.294725,38.3643131 115.176505,38.7298507 116.1,38.754 C116.928,38.754 117.423,38.439 117.423,37.854 C117.423,36.27 113.607,37.152 113.607,34.632 C113.607,33.426 114.642,32.661 116.181,32.661 C117.04744,32.6866994 117.889311,32.9548509 118.611,33.435 L118.611,33.435 Z" id="Path" fill="#213E7B" fill-rule="nonzero"></path>
                        <path d="M47.358,57.051 L48.969,57.051 C49.1869556,57.0517164 49.4042031,57.075855 49.617,57.123 C49.814306,57.1661632 50.0029405,57.2422255 50.175,57.348 C50.3350058,57.4571405 50.4674845,57.6019428 50.562,57.771 C50.6650926,57.9677282 50.7147468,58.1880686 50.706,58.41 C50.7125912,58.6849655 50.6270568,58.9542404 50.463,59.175 C50.2799066,59.3914654 50.0295982,59.5403831 49.752,59.598 L49.752,59.598 C50.0923708,59.6066528 50.415665,59.7489023 50.652,59.994 C50.8782422,60.2587418 50.9942204,60.6002332 50.976,60.948 C50.9708304,61.0761326 50.9496664,61.2031168 50.913,61.326 C50.8590073,61.5109396 50.7670509,61.6825915 50.643,61.83 C50.4725088,62.0124172 50.2675623,62.1592446 50.04,62.262 C49.7115507,62.3943055 49.3588325,62.4556478 49.005,62.442 L47.358,62.442 L47.358,57.051 Z M47.907,59.4 L49.014,59.4 C49.1454081,59.4176789 49.2785919,59.4176789 49.41,59.4 C49.5347383,59.3646511 49.6531726,59.3099891 49.761,59.238 C49.8635104,59.1563252 49.9491082,59.0554421 50.013,58.941 C50.082975,58.8048143 50.1170495,58.653028 50.112,58.5 C50.1221832,58.4223324 50.1221832,58.3436676 50.112,58.266 C50.0870155,58.1529433 50.0344547,58.0478217 49.959,57.96 C49.8677758,57.8466317 49.7504232,57.7570731 49.617,57.699 C49.4097719,57.6114102 49.1838373,57.5773653 48.96,57.6 L47.907,57.6 L47.907,59.4 Z M47.907,61.938 L48.96,61.938 C49.1479248,61.9408668 49.3354451,61.9196952 49.518,61.875 C49.6776303,61.8426376 49.8300867,61.781655 49.968,61.695 C50.0894333,61.6099398 50.1908003,61.4993576 50.265,61.371 C50.350858,61.2397522 50.3976743,61.0868189 50.4,60.93 C50.428198,60.6250035 50.2993435,60.3266036 50.058,60.138 C49.7580367,59.9466355 49.4051419,59.855261 49.05,59.877 L47.907,59.877 L47.907,61.938 Z" id="Shape" fill="#213E7B" fill-rule="nonzero"></path>
                        <path d="M53.316,61.839 L54.405,58.887 L55.017,58.887 L53.217,63.387 C53.127267,63.6308669 52.9895534,63.854269 52.812,64.044 C52.6171548,64.2170319 52.3609916,64.3045814 52.101,64.287 L51.867,64.287 C51.7874612,64.2815641 51.7088817,64.2664527 51.633,64.242 L51.687,63.756 C51.8049532,63.8121262 51.9344056,63.8398661 52.065,63.837 C52.2247651,63.8479003 52.3806934,63.7848655 52.488,63.666 C52.6038474,63.5264115 52.6951456,63.3681613 52.758,63.198 L53.01,62.505 L51.543,58.905 L52.2,58.905 L53.316,61.839 Z" id="Path" fill="#213E7B" fill-rule="nonzero"></path>
                        <polygon id="Path" fill="#213E7B" fill-rule="nonzero" points="58.5 59.4 58.581 59.4 61.128 57.051 61.911 57.051 59.211 59.508 62.1 62.46 61.29 62.46 58.59 59.67 58.5 59.67 58.5 62.46 57.951 62.46 57.951 57.06 58.5 57.06"></polygon>
                        <path d="M64.89,60.3 L64.89,60.201 C64.9193223,59.9544766 64.8339733,59.708121 64.6584261,59.5325739 C64.482879,59.3570267 64.2365234,59.2716777 63.99,59.301 C63.5875881,59.2956478 63.1982268,59.4436695 62.901,59.715 L62.595,59.355 C63.0074693,58.9841361 63.5540115,58.7987021 64.107,58.842 C64.2774784,58.8431592 64.4470162,58.8673789 64.611,58.914 C64.7627841,58.9646056 64.9033605,59.0440618 65.025,59.148 C65.1448096,59.2589142 65.2398786,59.3938509 65.304,59.544 C65.3810091,59.7228346 65.4178745,59.916378 65.412,60.111 L65.412,61.704 C65.412,61.839 65.412,61.983 65.412,62.136 C65.412,62.289 65.412,62.406 65.412,62.505 L64.926,62.505 C64.9204721,62.4120821 64.9204721,62.3189179 64.926,62.226 C64.926,62.118 64.926,62.019 64.926,61.929 L64.926,61.929 C64.7997397,62.1426157 64.619779,62.3194736 64.404,62.442 C64.1741242,62.5523204 63.9207874,62.6048414 63.666,62.595 C63.5106891,62.5974212 63.355915,62.5761777 63.207,62.532 C63.0643482,62.4898903 62.9302788,62.4228557 62.811,62.334 C62.6998952,62.245493 62.6080208,62.1352437 62.541,62.01 C62.4675191,61.868314 62.4304066,61.7105858 62.433,61.551 C62.4212298,61.3030746 62.5013456,61.0595226 62.658,60.867 C62.8150164,60.7007201 63.0093795,60.5742298 63.225,60.498 C63.4404029,60.402847 63.6673283,60.3362822 63.9,60.3 L64.602,60.3 L64.89,60.3 Z M64.629,60.705 L64.152,60.705 C63.9659908,60.7122655 63.7815928,60.7424946 63.603,60.795 C63.4378292,60.83477 63.2839185,60.9117254 63.153,61.02 C63.027734,61.1200809 62.9575611,61.273793 62.964,61.434 C62.9621446,61.5404041 62.9868935,61.6455869 63.036,61.74 C63.0874696,61.821565 63.1548019,61.8919579 63.234,61.947 C63.3169717,62.0005485 63.4081907,62.0400768 63.504,62.064 C63.6057884,62.073292 63.7082116,62.073292 63.81,62.064 C63.9736549,62.0690689 64.1364438,62.038354 64.287,61.974 C64.4146108,61.9140976 64.5304443,61.8317948 64.629,61.731 C64.7175126,61.6214761 64.784676,61.496308 64.827,61.362 C64.871244,61.2161824 64.8924989,61.0643616 64.89,60.912 L64.89,60.651 L64.629,60.705 Z" id="Shape" fill="#213E7B" fill-rule="nonzero"></path>
                        <path d="M66.6,60.003 C66.6,59.841 66.6,59.688 66.6,59.517 C66.6,59.346 66.6,59.148 66.6,58.887 L67.095,58.887 L67.095,59.553 L67.095,59.553 C67.1262822,59.4522812 67.1750237,59.3578445 67.239,59.274 C67.3107301,59.1842322 67.3922322,59.1027301 67.482,59.031 C67.5840729,58.9580755 67.6962593,58.9004663 67.815,58.86 C67.9512538,58.8145207 68.0944067,58.7932001 68.238,58.797 C68.3601479,58.7765244 68.4848521,58.7765244 68.607,58.797 L68.508,59.292 C68.4127885,59.2745998 68.3152115,59.2745998 68.22,59.292 C68.0487033,59.2875384 67.8788708,59.3245928 67.725,59.4 C67.5942086,59.4702759 67.4781111,59.564987 67.383,59.679 C67.293387,59.792564 67.2234198,59.9203302 67.176,60.057 C67.1340433,60.178599 67.1127487,60.3063664 67.113,60.435 L67.113,62.46 L66.6,62.46 L66.6,60.003 Z" id="Path" fill="#213E7B" fill-rule="nonzero"></path>
                        <path d="M69.831,57.51 C69.8355092,57.6087151 69.7959427,57.704334 69.723,57.771 C69.6559878,57.8380282 69.565753,57.8767002 69.471,57.879 C69.3756144,57.8797184 69.284263,57.8405678 69.219,57.771 C69.1404726,57.7077418 69.0969765,57.610712 69.102,57.51 C69.0984094,57.4095625 69.141631,57.3131452 69.219,57.249 C69.284263,57.1794322 69.3756144,57.1402816 69.471,57.141 C69.565753,57.1432998 69.6559878,57.1819718 69.723,57.249 C69.7949238,57.3163755 69.8342869,57.4115028 69.831,57.51 L69.831,57.51 Z M69.723,62.46 L69.219,62.46 L69.219,58.86 L69.723,58.86 L69.723,62.46 Z" id="Shape" fill="#213E7B" fill-rule="nonzero"></path>
                        <path d="M72.828,59.733 C72.7534722,59.5946303 72.6489159,59.4746981 72.522,59.382 C72.3816265,59.2952571 72.2189497,59.2514595 72.054,59.256 L71.793,59.256 C71.7066789,59.274031 71.6243455,59.3075743 71.55,59.355 C71.4827572,59.3970435 71.4246142,59.4521263 71.379,59.517 C71.2628285,59.7203732 71.3082346,59.9776745 71.487,60.129 C71.6524347,60.2226242 71.8316554,60.2894523 72.018,60.327 L72.531,60.444 C72.7668309,60.4952452 72.9826235,60.6140876 73.152,60.786 C73.3171757,60.9573079 73.4077825,61.1870607 73.404,61.425 C73.407182,61.601172 73.3637121,61.7750515 73.278,61.929 C73.2036523,62.0650112 73.0989388,62.1820439 72.972,62.271 C72.8342891,62.3619963 72.6821264,62.4289479 72.522,62.469 C72.3533374,62.5047545 72.1814106,62.5228521 72.009,62.523 C71.7458813,62.5285384 71.4847487,62.4763119 71.244,62.37 C70.9943565,62.2495037 70.7826426,62.0626973 70.632,61.83 L71.1,61.56 C71.1929737,61.7205954 71.3264046,61.8540263 71.487,61.947 C71.6405087,62.0445732 71.8181225,62.0975457 72,62.1 C72.1018151,62.1086857 72.2041849,62.1086857 72.306,62.1 C72.4000267,62.0750222 72.4906856,62.0387586 72.576,61.992 C72.651793,61.9432433 72.7162433,61.878793 72.765,61.803 C72.8196519,61.7237239 72.8479886,61.6292682 72.846,61.533 C72.8566788,61.3750305 72.7763254,61.2248045 72.639,61.146 C72.4893456,61.0636723 72.3287349,61.0030645 72.162,60.966 L71.676,60.849 L71.424,60.768 C71.3160729,60.7298328 71.21329,60.6784414 71.118,60.615 C71.0182063,60.5375863 70.9328921,60.4431313 70.866,60.336 C70.7903478,60.2049177 70.7529339,60.0552619 70.758,59.904 C70.7542965,59.738545 70.7913882,59.5747232 70.866,59.427 C70.9354784,59.2928295 71.0376174,59.17831 71.163,59.094 C71.2919565,59.0048463 71.4349343,58.9379205 71.586,58.896 C71.7472749,58.8521204 71.9138753,58.8309167 72.081,58.833 C72.3197061,58.8302097 72.5561658,58.8793442 72.774,58.977 C72.992378,59.0782243 73.1677757,59.253622 73.269,59.472 L72.828,59.733 Z" id="Path" fill="#213E7B" fill-rule="nonzero"></path>
                        <path d="M74.187,59.679 C74.187,59.553 74.187,59.418 74.187,59.283 L74.187,58.887 L74.7,58.887 L74.7,59.4 L74.7,59.4 C74.814048,59.194444 74.9905707,59.03053 75.204,58.932 C75.4043175,58.8279582 75.6262884,58.7724655 75.852,58.77 L76.158,58.77 C76.2671811,58.7924008 76.3730428,58.8286962 76.473,58.878 C76.5805337,58.9369353 76.6777966,59.0129219 76.761,59.103 C76.8605317,59.2126796 76.937042,59.341217 76.986,59.481 C77.0923499,59.2577751 77.2611722,59.0701948 77.472,58.941 C78.0185754,58.6264298 78.704221,58.6913857 79.182,59.103 C79.4150458,59.3956539 79.5305733,59.7647001 79.506,60.138 L79.506,62.46 L79.002,62.46 L79.002,60.372 C79.019911,60.0835696 78.9542908,59.7960908 78.813,59.544 C78.6435877,59.3290458 78.3732501,59.219542 78.102,59.256 C77.9390969,59.2489408 77.7773364,59.2862701 77.634,59.364 C77.5047702,59.4336613 77.3961361,59.5360878 77.319,59.661 C77.236835,59.7872097 77.1788498,59.9275949 77.148,60.075 C77.1112702,60.2343673 77.0931492,60.3974571 77.094,60.561 L77.094,62.46 L76.59,62.46 L76.59,60.372 C76.607911,60.0835696 76.5422908,59.7960908 76.401,59.544 C76.2315877,59.3290458 75.9612501,59.219542 75.69,59.256 L75.483,59.256 C75.3569871,59.2848903 75.23972,59.3435239 75.141,59.427 C75.0048533,59.5382592 74.8969212,59.6801127 74.826,59.841 C74.7169349,60.0774439 74.6674921,60.3370184 74.682,60.597 L74.682,62.397 L74.178,62.397 L74.187,59.679 Z" id="Path" fill="#213E7B" fill-rule="nonzero"></path>
                        <path d="M82.989,60.3 L82.989,60.201 C83.0183223,59.9544766 82.9329733,59.708121 82.7574261,59.5325739 C82.581879,59.3570267 82.3355234,59.2716777 82.089,59.301 C81.6927203,59.2841366 81.304403,59.4157152 81,59.67 L80.703,59.31 C81.1154693,58.9391361 81.6620115,58.7537021 82.215,58.797 C82.3825468,58.7978451 82.5491551,58.822079 82.71,58.869 C82.8617841,58.9196056 83.0023605,58.9990618 83.124,59.103 C83.2464565,59.2135693 83.3445396,59.3484335 83.412,59.499 C83.4890091,59.6778346 83.5258745,59.871378 83.52,60.066 L83.52,61.659 C83.5113522,61.8028702 83.5113522,61.9471298 83.52,62.091 C83.52,62.244 83.52,62.361 83.52,62.46 L83.034,62.46 C83.0284721,62.3670821 83.0284721,62.2739179 83.034,62.181 C83.034,62.073 83.034,61.974 83.034,61.884 L83.034,61.884 C82.9101859,62.0995176 82.7296381,62.2769525 82.512,62.397 C82.2827318,62.5091071 82.0289402,62.5617224 81.774,62.55 C81.6187637,62.551225 81.4641654,62.5300057 81.315,62.487 C81.1743541,62.4467881 81.0429004,62.3795327 80.928,62.289 C80.6759225,62.1102104 80.5332084,61.8145885 80.55,61.506 C80.5337312,61.2574833 80.6143744,61.0123278 80.775,60.822 C80.9288276,60.6519407 81.1242152,60.5247836 81.342,60.453 C81.5738903,60.3693712 81.8161409,60.317893 82.062,60.3 L82.773,60.3 L82.989,60.3 Z M82.728,60.705 L82.251,60.705 C82.0649149,60.711507 81.8804226,60.7417517 81.702,60.795 C81.5353933,60.8307585 81.3805708,60.9081697 81.252,61.02 C81.126734,61.1200809 81.0565611,61.273793 81.063,61.434 C81.0611446,61.5404041 81.0858935,61.6455869 81.135,61.74 C81.181162,61.8255663 81.2495688,61.8970826 81.333,61.947 C81.4159717,62.0005485 81.5071907,62.0400768 81.603,62.064 C81.700711,62.0849364 81.8001166,62.0969856 81.9,62.1 C82.0637232,62.1059621 82.2267056,62.0752107 82.377,62.01 C82.5059052,61.9523389 82.6221349,61.8697547 82.719,61.767 C82.8107896,61.6596848 82.8783282,61.5338174 82.917,61.398 C82.9641516,61.2526319 82.9884411,61.1008229 82.989,60.948 L82.989,60.687 L82.728,60.705 Z" id="Shape" fill="#213E7B" fill-rule="nonzero"></path>
                    </g>
                </g>
            </g>
        </g>
    </g>
</svg>