<?xml version="1.0" encoding="UTF-8"?>
<svg width="108px" height="67px" viewBox="0 0 108 67" version="1.1" xmlns="http://www.w3.org/2000/svg" xmlns:xlink="http://www.w3.org/1999/xlink">
    <title>brands / Generations WHT</title>
    <defs>
        <filter id="filter-1">
            <feColorMatrix in="SourceGraphic" type="matrix" values="0 0 0 0 1.000000 0 0 0 0 1.000000 0 0 0 0 1.000000 0 0 0 1.000000 0"></feColorMatrix>
        </filter>
    </defs>
    <g id="Symbols" stroke="none" stroke-width="1" fill="none" fill-rule="evenodd">
        <g id="Footer-/-Corp" transform="translate(-547.000000, -111.000000)">
            <g id="Brand-Logos-WHT" transform="translate(122.000000, 103.000000)">
                <g id="brands-/-Generations-WHT" transform="translate(425.200000, 7.200000)" filter="url(#filter-1)">
                    <g>
                        <path d="M88.2,50.724 L87.489,50.724 L84.87,52.767 L84.87,50.724 L84.402,50.724 L84.402,54.558 L84.87,54.558 L84.87,53.307 L85.959,52.452 L87.849,54.558 L88.479,54.558 L86.31,52.2 L88.2,50.724 Z M91.701,52.605 C91.701,51.894 90.981,51.705 90.36,51.705 C89.8138645,51.634328 89.2715888,51.8608482 88.938,52.299 L89.262,52.515 C89.5385586,52.1861105 89.959301,52.0144476 90.387,52.056 C90.828,52.056 91.287,52.2 91.287,52.569 L91.287,52.677 C90.207,52.803 88.776,52.839 88.776,53.793 C88.776,54.504 89.442,54.6390004 89.901,54.6390004 C90.3920359,54.639295 90.8718122,54.4919127 91.278,54.216 C91.2842964,54.3285839 91.3023957,54.4401957 91.332,54.549 L91.755,54.549 C91.7452139,54.4081698 91.7452139,54.2668302 91.755,54.126 L91.701,52.605 Z M91.278,53.865 C90.8511469,54.1189032 90.3697538,54.2670241 89.874,54.297 C89.658,54.297 89.172,54.234 89.172,53.802 C89.172,53.37 90.018,53.154 91.278,53.037 L91.278,53.865 Z M92.943,52.371 L92.943,51.795 L92.52,51.795 L92.52,54.558 L92.943,54.558 L92.943,52.911 C93.1459252,52.490596 93.5433927,52.1975479 94.005,52.128 C94.1186581,52.1155144 94.2333419,52.1155144 94.347,52.128 L94.347,51.696 L94.095,51.696 C93.6234151,51.7338568 93.1938269,51.9816961 92.925,52.371 L92.943,52.371 Z M95.022,51.21 L95.517,51.21 L95.517,50.724 L95.022,50.724 L95.022,51.21 Z M95.022,54.558 L95.454,54.558 L95.454,51.795 L95.022,51.795 L95.022,54.558 Z M96.633,52.524 C96.633,52.236 96.921,52.074 97.425,52.074 C97.8598548,52.047924 98.2799804,52.2361402 98.55,52.578 L98.838,52.308 C98.5078295,51.8758333 97.9740803,51.6500163 97.434,51.714 C96.849,51.714 96.201,51.921 96.201,52.551 C96.201,53.694 98.505,53.028 98.505,53.811 C98.505,54.135 98.091,54.279 97.605,54.279 C97.120563,54.2947067 96.657032,54.0812824 96.354,53.703 L96.039,53.991 C96.4198543,54.4349607 96.9848105,54.6775596 97.569,54.648 C98.28,54.648 98.901,54.414 98.901,53.748 C98.946,52.596 96.651,53.235 96.651,52.524 L96.633,52.524 Z M103.14,51.714 C102.716353,51.7212289 102.313716,51.8998179 102.024,52.209 C101.856851,51.8722015 101.497946,51.6748038 101.124,51.714 C100.711972,51.7254677 100.31961,51.8927041 100.026,52.182 L100.026,51.795 L99.612,51.795 L99.612,54.558 L100.044,54.558 L100.044,52.56 C100.31211,52.273911 100.678793,52.1002191 101.07,52.074 C101.24214,52.0568253 101.412305,52.1217914 101.529202,52.2493149 C101.646098,52.3768384 101.69605,52.5520005 101.664,52.722 L101.664,54.522 L102.096,54.522 L102.096,52.56 C102.358032,52.2757926 102.718449,52.1020203 103.104,52.074 C103.27812,52.0545711 103.451256,52.1180492 103.571553,52.2454224 C103.69185,52.3727956 103.745339,52.5492733 103.716,52.722 L103.716,54.522 L104.139,54.522 L104.139,52.56 C104.175,51.768 103.419,51.714 103.158,51.714 L103.14,51.714 Z M107.64,54.135 L107.64,52.605 C107.64,51.894 106.92,51.705 106.29,51.705 C105.746889,51.6376858 105.208886,51.8638527 104.877,52.299 L105.192,52.515 C105.472313,52.1859255 105.895713,52.0145494 106.326,52.056 C106.767,52.056 107.226,52.2 107.226,52.569 L107.226,52.677 C106.155,52.803 104.724,52.839 104.724,53.793 C104.724,54.504 105.39,54.639 105.849,54.639 C106.339624,54.6365708 106.818624,54.489427 107.226,54.216 C107.227819,54.3290258 107.246008,54.4411915 107.28,54.549 L107.703,54.549 C107.674359,54.4128256 107.659286,54.2741478 107.658,54.135 L107.64,54.135 Z M107.208,53.865 C106.782317,54.1215313 106.300263,54.2698556 105.804,54.297 C105.597,54.297 105.111,54.234 105.111,53.802 C105.111,53.37 105.957,53.154 107.208,53.037 L107.208,53.865 Z" id="Shape" fill="#6F7271" fill-rule="nonzero"></path>
                        <path d="M76.698,51.714 C76.2425934,51.7083936 75.8019919,51.8756292 75.465,52.182 L75.465,50.724 L75.033,50.724 L75.033,54.045 C75.033,54.117 75.033,54.477 75.033,54.558 L75.366,54.558 L75.474,54.126 C75.8166641,54.4751353 76.290081,54.664502 76.779,54.648 C77.3031086,54.6383538 77.7822588,54.3498318 78.0359593,53.8911173 C78.2896597,53.4324028 78.2793674,52.8731856 78.0089593,52.4241173 C77.7385511,51.975049 77.2491086,51.7043538 76.725,51.714 L76.698,51.714 Z M76.698,54.279 C76.2388635,54.2442763 75.810491,54.0349214 75.501,53.694 L75.501,52.623 C75.8042048,52.2735552 76.244351,52.0731902 76.707,52.074 C77.0229331,52.041599 77.3371133,52.1498978 77.5659762,52.3700917 C77.7948391,52.5902856 77.9151832,52.9000517 77.895,53.217 C77.8872008,53.5268797 77.7487828,53.8190256 77.5139149,54.0213206 C77.2790469,54.2236157 76.9696138,54.3172102 76.662,54.279 L76.698,54.279 Z M81.396,51.795 L80.226,54 L79.047,51.768 L78.579,51.768 L80.001,54.468 C79.749,54.999 79.533,55.161 79.209,55.161 C79.0397996,55.1624982 78.8718442,55.1319608 78.714,55.071 L78.714,55.467 C78.8859525,55.5204062 79.064945,55.5477101 79.245,55.548 C79.6624564,55.5562333 80.0432637,55.310666 80.208,54.927 L81.819,51.813 L81.396,51.795 Z" id="Shape" fill="#6F7271" fill-rule="nonzero"></path>
                        <path d="M44.181,55.17 C45.36,56.133 47.781,55.737 48.681,55.494 C50.184,54.999 52.209,53.739 52.722,51.948 C52.9672759,51.2105105 52.8178373,50.3987867 52.326,49.797 C51.2835062,48.819121 49.8118152,48.4452503 48.429,48.807 C47.7138469,48.9414954 47.0184087,49.1652451 46.359,49.473 C44.8105386,50.0968624 43.6827733,51.4616955 43.362,53.1 C43.2225847,53.8892577 43.5393155,54.6897861 44.181,55.17 Z M46.989,50.463 C47.7538439,49.7768734 48.6845105,49.3022334 49.689,49.086 C50.1042425,48.9941503 50.5381241,49.1118701 50.85,49.401 C51.1744894,49.8129366 51.275461,50.3581837 51.12,50.859 C50.5754899,52.7900977 49.1904928,54.3734238 47.349,55.17 C46.7950272,55.459283 46.1526083,55.5299491 45.549,55.368 C45.1864743,55.0866123 44.982032,54.6475641 45,54.189 C45.0386915,52.7029324 45.7758037,51.3220977 46.989,50.463 L46.989,50.463 Z M52.857,64.53 C52.758,64.593 52.578,64.818 52.344,65.016 C49.5,67.5 35.721,69.444 31.086,62.1 C29.3429784,59.2249721 27.9128258,56.1715662 26.82,52.992 C25.65,49.941 25.092,47.196 21.762,45.63 C23.5659234,45.6930339 25.3637005,45.3867686 27.045,44.73 C28.638,44.082 30.519,42.768 30.987,41.058 C31.2302339,40.1278803 31.0454066,39.1377335 30.483,38.358 C29.313,36.846 26.766,36.89976 25.452,36.89976 L18.432,36.89976 C18.345524,36.9192155 18.283997,36.9959148 18.283997,37.0845 C18.283997,37.1730852 18.345524,37.2497845 18.432,37.269 C20.385,37.269 20.889,37.323 21.033,37.719 C21.177,38.115 20.781,38.619 20.052,39.699 L10.521,52.857 C9.18,54.9 8.424,55.296 5.4,55.296 C5.175,55.296 5.238,55.656 5.4,55.656 L14.067,55.656 C14.1664113,55.656 14.247,55.5754113 14.247,55.476 C14.247,55.3765887 14.1664113,55.296 14.067,55.296 C12.132,55.296 11.628,55.242 11.466,54.846 C11.304,54.45 11.655,54.063 12.474,52.857 L17.424,45.603 L19.827,45.603 C22.401,45.603 23.211,47.925 24.246,50.895 C25.002,53.073 26.721,58.851 29.799,62.595 C35.856,69.858 49.329,68.238 52.722,65.565 C52.722,65.565 53.262,65.151 53.307,64.962 C53.424,64.521 53.037,64.332 52.857,64.53 Z M17.703,45.216 L20.556,40.932 C22.356,38.133 22.959,37.332 25.596,37.332 C26.5869372,37.2760141 27.5657162,37.5725172 28.359,38.169 C29.0855304,38.8456328 29.2992172,39.910445 28.89,40.815 C27.774,43.308 24.669,45.252 21.447,45.252 L17.703,45.216 Z M83.88,38.016 C82.3337398,37.4955741 80.6739359,37.411494 79.083,37.773 C75.2557099,38.7733194 71.6827754,40.5705208 68.598,43.047 C66.4658984,44.9509564 64.5274522,47.06124 62.811,49.347 L60.885,49.347 C60.7955299,49.347 60.723,49.4195299 60.723,49.509 C60.723,49.5984701 60.7955299,49.671 60.885,49.671 L62.613,49.671 C62.28,50.184 62.253,50.265 61.947,50.769 L61.947,50.769 C61.047,52.173 60.453,53.523 60.966,54.756 C61.2411327,55.3970033 61.8618465,55.821333 62.559,55.845 C63.2370938,55.9230502 63.9240505,55.8429566 64.566,55.611 C64.782,55.53 64.8,55.404 64.782,55.314 C64.764,55.224 64.62,55.215 64.575,55.206 C64.1251991,55.3925384 63.6392208,55.4755853 63.153,55.449 C62.7496437,55.4346394 62.394554,55.1789748 62.253,54.801 C61.776,53.532 63.279,50.886 64.296,49.671 L67.068,49.671 C67.1574701,49.671 67.23,49.5984701 67.23,49.509 C67.23,49.4195299 67.1574701,49.347 67.068,49.347 L64.485,49.347 L64.566,49.212 C65.034,48.555 67.266,45.873 69.066,43.956 C71.406,41.409 77.166,38.439 79.173,38.115 C80.7097686,37.7986343 82.3003948,37.8604062 83.808,38.295 C83.9467126,38.3766538 84.073846,38.4765444 84.186,38.592 C84.366,38.727 84.609,38.799 84.699,38.655 C84.789,38.511 84.123,38.142 83.88,38.025 L83.88,38.016 Z M35.667,52.812 C35.667,52.686 35.604,52.659 35.478,52.632 C35.199,52.632 35.226,53.037 35.226,53.253 C35.2211127,54.4352992 35.9327672,55.5027809 37.026,55.953 C38.0721521,56.320284 39.2363194,56.0502813 40.014,55.26 C40.3659227,54.9356071 40.6345022,54.5311943 40.797,54.081 C40.8736198,53.7068827 40.8736198,53.3211173 40.797,52.947 C40.797,52.713 40.554,51.84 40.518,51.624 C40.2674814,50.8680733 40.4202077,50.0365635 40.923,49.419 C41.1795264,49.2143564 41.4950519,49.097612 41.823,49.086 C42.2671905,49.0918465 42.6935302,49.2617413 43.02,49.563 C43.0794876,49.6253035 43.130892,49.6948507 43.173,49.77 C43.317,50.004 43.488,50.301 43.686,50.274 C43.884,50.247 43.839,50.094 43.758,49.923 C43.6913845,49.7938937 43.609825,49.6730648 43.515,49.563 C42.6595326,48.6635939 41.2877451,48.4940048 40.239,49.158 C39.486309,49.6220468 39.0011878,50.4183147 38.934,51.3 C38.9516514,51.743966 39.042892,52.1819208 39.204,52.596 C39.3622256,53.1019765 39.4232995,53.6333195 39.384,54.162 C39.3875611,54.4811611 39.2967617,54.7942625 39.123,55.062 C38.4912716,55.7999048 37.3880082,55.9034602 36.63,55.296 C35.8489971,54.7289982 35.4722772,53.7572723 35.667,52.812 L35.667,52.812 Z M73.296,49.59 C72.4405326,48.6905939 71.0687451,48.5210048 70.02,49.185 C69.2321432,49.6172432 68.7047254,50.4066903 68.607,51.3 C68.6321901,51.7438597 68.7263169,52.1810936 68.886,52.596 C69.0353244,53.1038225 69.0962116,53.6335412 69.066,54.162 C69.0663537,54.4820079 68.9724464,54.7950321 68.796,55.062 C68.1651218,55.7942726 67.0685305,55.8975747 66.312,55.296 C65.5358707,54.7371824 65.1562379,53.7775549 65.34,52.839 C65.34,52.713 65.286,52.686 65.16,52.659 C64.881,52.659 64.899,53.064 64.908,53.28 C64.9055671,54.4615602 65.6163933,55.5277995 66.708,55.98 C67.7569104,56.348818 68.9244704,56.0788417 69.705,55.287 C70.0541956,54.9620776 70.3197274,54.5576047 70.479,54.108 C70.5658667,53.7362861 70.5811388,53.3514284 70.524,52.974 C70.524,52.74 70.281,51.867 70.245,51.651 C69.9855835,50.8957141 70.1391183,50.0598026 70.65,49.446 C70.9065264,49.2413564 71.2220519,49.124612 71.55,49.113 C71.9941905,49.1188465 72.4205302,49.2887413 72.747,49.59 C72.8036583,49.6546328 72.8548352,49.7238721 72.9,49.797 C73.035,50.031 73.215,50.328 73.413,50.301 C73.611,50.274 73.566,50.121 73.485,49.95 C73.4293317,49.8262915 73.366216,49.706071 73.296,49.59 Z M29.808,51.516 C29.0818201,52.3110214 28.7688637,53.3997103 28.962,54.459 C29.1797354,55.1304138 29.7327572,55.6390573 30.42,55.8 C31.8884775,56.0120475 33.3824631,55.6546501 34.596,54.801 C34.6705614,54.767693 34.7185725,54.6936624 34.7185725,54.612 C34.7185725,54.5303376 34.6705614,54.456307 34.596,54.423 C34.5367596,54.4094979 34.4752404,54.4094979 34.416,54.423 C33.9141335,54.7096333 33.3905223,54.9563926 32.85,55.161 C32.2238083,55.386696 31.523653,55.2326619 31.05,54.765 C30.7140262,54.3664143 30.5841236,53.8334805 30.699,53.325 C30.7234405,53.1762085 30.7564961,53.0289609 30.798,52.884 L31.815,52.632 C33.498,52.191 35.298,51.795 36.315,50.454 C36.5913359,50.1652451 36.6627486,49.736769 36.495,49.374 C36.2659941,49.0081145 35.8805112,48.7688492 35.451,48.726 C33.885,48.546 31.5,49.5 29.808,51.516 Z M34.137,49.167 C34.4373365,49.0634174 34.7674185,49.2032168 34.902,49.491 C35.0261441,49.7781569 35.0261441,50.1038431 34.902,50.391 C34.56,51.111 34.137,51.678 31.689,52.272 C31.689,52.272 31.194,52.416 30.915,52.47 C31.5,51.066 32.823,49.5 34.137,49.167 Z M62.811,48.267 C62.9576911,48.1442205 63.0932205,48.0086911 63.216,47.862 C63.2015815,47.7036552 63.1062419,47.5640507 62.964,47.493 C62.7904134,47.3708792 62.5821757,47.3077768 62.37,47.313 C61.3854629,47.4272223 60.4513532,47.8102073 59.67,48.42 C59.0389335,48.9019594 58.4378197,49.4219228 57.87,49.977 C57.9391959,49.7303026 57.892862,49.4655373 57.744,49.257 C57.321,48.582 55.809,48.789 55.098,48.906 L53.712,49.104 C53.487,49.158 53.568,49.482 53.766,49.437 L55.152,49.257 C55.98,49.131 56.331,49.104 56.484,49.257 C56.637,49.41 56.637,49.608 56.286,50.157 L54.117,53.595 C53.64,54.117 53.127,55.269 51.417,55.314 C51.246,55.314 51.246,55.629 51.417,55.629 L56.763,55.629 C56.988,55.629 56.943,55.314 56.763,55.314 C55.404,55.314 55.161,54.558 55.719,53.793 L56.781,52.074 C57.6120802,50.7066275 58.7148056,49.5242608 60.021,48.6 C60.6219426,48.0392831 61.3777092,47.6723757 62.19,47.547 C62.55,47.601 62.793,48.222 62.811,48.249 L62.811,48.267 Z" id="Shape" fill="#6F7271" fill-rule="nonzero"></path>
                        <path d="M106.803,27.954 C106.735422,27.8275391 106.657135,27.7070989 106.569,27.594 C105.714161,26.6949785 104.344618,26.5219044 103.293,27.18 C102.501052,27.6210429 101.973755,28.4203848 101.88,29.322 C101.897651,29.765966 101.988892,30.2039208 102.15,30.618 C102.307184,31.1242752 102.371221,31.6548657 102.339,32.184 C102.339354,32.5040079 102.245446,32.8170321 102.069,33.084 C101.438122,33.8162726 100.341531,33.9195747 99.585,33.318 C98.8088707,32.7591824 98.4292379,31.7995549 98.613,30.861 C98.613,30.735 98.55,30.708 98.433,30.681 C98.154,30.681 98.172,31.086 98.172,31.302 C98.1671127,32.4842992 98.8787672,33.5517809 99.972,34.002 C101.02091,34.370818 102.18847,34.1008417 102.969,33.309 C103.31427,32.9807815 103.579142,32.5773138 103.743,32.13 C103.819372,31.7558575 103.819372,31.3701425 103.743,30.996 C103.743,30.762 103.509,29.889 103.473,29.673 C103.213584,28.9177141 103.367118,28.0818026 103.878,27.468 C104.133553,27.2616377 104.449672,27.1446735 104.778,27.135 C105.225305,27.1386245 105.655235,27.3086714 105.984,27.612 C106.037394,27.6770866 106.085545,27.7463034 106.128,27.819 C106.272,28.053 106.443,28.35 106.65,28.323 C106.857,28.296 106.893,28.116 106.803,27.954 Z M53.154,30.285 C54.954,27.477 60.525,23.247 63.954,25.326 C64.323,25.551 64.44,25.821 64.737,25.956 C64.8,25.956 65.214,25.911 64.818,25.578 C62.964,24.012 58.653,23.778 54.216,28.17 C54.2905131,27.9248254 54.2473109,27.6589657 54.099,27.45 C53.667,26.775 52.155,26.982 51.453,27.099 L50.067,27.306 C50.009123,27.3156462 49.9607886,27.3554366 49.9402039,27.4103827 C49.9196192,27.4653287 49.9299115,27.5270828 49.9672039,27.5723827 C50.0044962,27.6176826 50.063123,27.6396462 50.121,27.63 L51.498,27.45 C52.335,27.324 52.686,27.306 52.839,27.45 C52.992,27.594 52.992,27.801 52.632,28.35 L50.472,31.788 C49.995,32.31 49.482,33.462 47.772,33.507 C47.592,33.507 47.592,33.831 47.772,33.831 L53.118,33.831 C53.343,33.831 53.289,33.507 53.118,33.507 C51.75,33.507 51.516,32.751 52.074,31.986 L53.154,30.285 Z M65.367,26.829 L64.647,26.829 C64.197,26.829 64.125,26.901 63.873,27.252 L63.252,28.053 C63.081,27.306 62.802,27.009 62.208,26.883 C60.768,26.577 58.077,27.729 56.511,29.367 C55.601098,30.1987022 55.1800259,31.4381481 55.395,32.652 C55.4849333,33.248687 55.9078774,33.7415392 56.484,33.921 C57.906,34.272 59.769,33.075 60.984,31.68 C60.8559559,32.2607797 60.93225,32.8679536 61.2,33.399 C61.5370069,33.8746516 62.1223956,34.1073966 62.694,33.993 C63.1163374,33.9420561 63.5270805,33.8203544 63.909,33.633 C64.116,33.444 63.99,33.192 63.756,33.3 C63.5320105,33.4149859 63.2925121,33.4968397 63.045,33.543 C62.7789174,33.605895 62.5033959,33.4846655 62.37,33.246 C62.001,32.679 62.991,31.284 63.909,29.934 L65.709,27.324 C65.844,27.054 65.763,26.829 65.367,26.829 Z M62.784,28.296 C62.532,29.619 59.769,32.679 58.23,33.327 C57.8885863,33.5403363 57.4554137,33.5403363 57.114,33.327 C56.8846113,33.087965 56.8050929,32.742233 56.907,32.427 C57.231,30.627 59.769,28.152 61.407,27.45 C61.776,27.306 62.226,27.153 62.55,27.45 C62.7935916,27.6576605 62.8862564,27.9926795 62.784,28.296 L62.784,28.296 Z M23.841,27.342 C23.9553229,27.342 24.048,27.2493229 24.048,27.135 C24.048,27.0206771 23.9553229,26.928 23.841,26.928 L12.393,26.928 C12.2786771,26.928 12.186,27.0206771 12.186,27.135 C12.186,27.2493229 12.2786771,27.342 12.393,27.342 L14.94,27.342 C16.38,27.342 18.243,27.252 18.765,28.116 C19.287,28.98 18.693,29.7 18,30.69 C15.525,34.515 11.7,36.477 8.487,36.477 C7.2,36.477 4.887,35.928 4.05,34.488 C2.736,32.076 3.888,28.026 5.562,25.317 C8.379,20.7 14.13,16.2 18.315,16.38 C19.8274381,16.2798532 21.2677868,17.0382977 22.041,18.342 C22.707,19.512 22.815,21.465 20.979,24.327 C20.79,24.651 21.177,24.903 21.429,24.552 L26.829,17.244 C26.991,17.019 26.64,16.731 26.415,17.019 C26.0005528,17.6686393 25.358737,18.1403739 24.615,18.342 C23.301,18.603 22.653,17.379 21.015,16.542 C17.703,14.904 13.365,16.614 10.467,18.342 C5.967,20.943 2.241,25.542 2.079,29.916 C2.016,31.428 2.079,34.416 4.302,35.901 C6.642,37.512 10.602,36.9 12.627,36 L13.077,35.802 C14.139,35.352 14.175,35.1 14.715,35.289 C15.016325,35.3839039 15.198377,35.6899062 15.138,36 C14.913,37.062 13.176,38.7 12.276,39.402 C9.702,41.427 5.976,42.201 3.591,41.337 C2.78367263,41.0919077 2.08279511,40.5813136 1.602,39.888 C1.44,39.663 1.44,39.375 1.242,39.051 C1.22181636,38.9557501 1.15622831,38.8764419 1.06645958,38.8387391 C0.976690861,38.8010362 0.874143143,38.8097273 0.792,38.862 C0.601272444,38.9546152 0.505947927,39.1719551 0.567,39.375 C0.63,39.789 0.99,40.014 1.053,40.149 C2.241,41.688 4.941,42.201 6.705,42.111 C11.592,41.787 13.977,39.213 17.505,33.903 L19.242,31.302 C22.149,27.468 20.907,27.378 24.201,27.342 L23.841,27.342 Z M87.03,30.123 C87.2752759,29.3855105 87.1258373,28.5737867 86.634,27.972 C85.591386,26.9942505 84.1166656,26.6264219 82.737,27 C82.0207989,27.1303412 81.3248377,27.3542591 80.667,27.666 C79.1247103,28.2988677 78.0094452,29.6717623 77.706,31.311 C77.5758779,32.0941123 77.891419,32.884699 78.525,33.363 C79.704,34.326 82.125,33.93 83.025,33.678 C84.492,33.174 86.517,31.923 87.03,30.123 L87.03,30.123 Z M85.5,29.034 C84.9543876,30.9666157 83.5701978,32.5523224 81.729,33.354 C81.1735117,33.6382659 80.532997,33.7087225 79.929,33.552 C79.5436672,33.2793281 79.3153103,32.8360471 79.3169907,32.364 C79.3647718,30.8738345 80.1117578,29.4932443 81.333,28.638 C82.0978439,27.9518734 83.0285105,27.4772334 84.033,27.261 C84.44812,27.1738098 84.8798747,27.2909526 85.194,27.576 C85.5309683,27.9814273 85.6455356,28.5273064 85.5,29.034 L85.5,29.034 Z M40.806,28.8 C40.716,28.089 40.419,27.207 39.654,27 C38.304,26.604 36.837,27.558 35.415,28.737 C35.5090673,28.3153694 35.4278623,27.8736141 35.19,27.513 C34.677,26.874 33.3,27.045 32.616,27.171 L31.266,27.369 C31.200769,27.3532958 31.1326077,27.3794276 31.0945932,27.4347141 C31.0565787,27.4900006 31.0565787,27.5629994 31.0945932,27.6182859 C31.1326077,27.6735724 31.200769,27.6997042 31.266,27.684 L32.616,27.513 C33.426,27.387 33.768,27.369 33.921,27.513 C34.074,27.657 34.065,27.855 33.723,28.413 L31.608,31.797 C30.627,33.39 30.411,33.489 27.81,33.489 C27.639,33.489 27.639,33.813 27.81,33.813 L33.966,33.813 C34.191,33.813 34.137,33.489 33.966,33.489 C33.255,33.489 32.958,33.489 32.814,33.246 C32.67,33.003 32.814,32.778 32.985,32.346 C34.11,29.763 37.431,27.189 38.655,27.216 C39.0150686,27.2291504 39.3231646,27.4785615 39.411,27.828 C39.69,28.566 38.943,30.204 38.241,31.428 C38.106,31.662 37.89,32.058 37.692,32.445 C37.557,32.679 37.422,32.913 37.278,33.138 C37.134,33.363 36.783,33.399 36.189,33.426 C36.018,33.426 36.018,33.732 36.189,33.732 L39.996,33.732 C40.23,33.732 40.176,33.426 39.996,33.426 C39.276,33.426 39.348,32.751 39.618,32.346 C39.681,32.247 39.798,32.076 39.915,31.878 L39.915,31.878 C40.534784,30.9742812 40.8471919,29.8950539 40.806,28.8 Z M97.875,28.8 C97.776,28.08 97.479,27.198 96.714,27 C95.355,26.604 93.879,27.567 92.448,28.746 C92.5414686,28.3214587 92.4603931,27.8771651 92.223,27.513 C91.71,26.874 90.324,27.045 89.64,27.171 L88.281,27.369 C88.056,27.414 88.137,27.738 88.281,27.693 L89.64,27.513 C90.459,27.396 90.801,27.369 90.945,27.513 C91.089,27.657 91.098,27.864 90.747,28.413 L88.632,31.815 C87.642,33.417 87.417,33.516 84.807,33.516 C84.636,33.516 84.636,33.84 84.807,33.84 L90.999,33.84 C91.215,33.84 91.17,33.516 90.999,33.516 C90.279,33.516 89.991,33.516 89.838,33.273 C89.685,33.03 89.838,32.805 90.009,32.373 C91.143,29.781 94.509,27.189 95.706,27.216 C96.0698198,27.2322385 96.3803167,27.484289 96.471,27.837 C96.75,28.575 95.994,30.222 95.292,31.437 C95.157,31.68 94.941,32.076 94.743,32.472 C94.608,32.697 94.473,32.931 94.32,33.165 C94.167,33.399 93.825,33.426 93.231,33.453 C93.06,33.453 93.06,33.759 93.231,33.759 L97.056,33.759 C97.29,33.759 97.236,33.453 97.056,33.453 C96.327,33.453 96.399,32.778 96.678,32.373 C96.741,32.265 96.858,32.094 96.975,31.896 L96.975,31.896 C97.5924932,30.984032 97.9073631,29.9008797 97.875,28.8 L97.875,28.8 Z M47.079,32.562 C47.0197596,32.5484979 46.9582404,32.5484979 46.899,32.562 C46.3980282,32.8503497 45.8742766,33.0971751 45.333,33.3 C44.7068083,33.525696 44.006653,33.3716619 43.533,32.904 C43.218004,32.5091624 43.095876,31.9942443 43.2,31.5 C43.2233673,31.3510021 43.2564376,31.2036888 43.299,31.059 L44.316,30.807 C45.999,30.366 47.808,29.97 48.816,28.629 C49.0915663,28.3362284 49.1626994,27.9058734 48.996,27.54 C48.7711771,27.1713367 48.3825837,26.9334908 47.952,26.901 C46.467,26.703 44.046,27.666 42.39,29.673 C41.6638201,30.4680214 41.3508637,31.5567103 41.544,32.616 C41.7695812,33.2769827 42.3212012,33.7741218 43.002,33.93 C44.4703496,34.1392775 45.9633236,33.7821221 47.178,32.931 C47.2441022,32.8799553 47.2730546,32.7941875 47.251413,32.7135234 C47.2297714,32.6328592 47.1617757,32.5731019 47.079,32.562 L47.079,32.562 Z M46.647,27.333 C46.9450024,27.2281282 47.2742454,27.3636988 47.412,27.648 C47.5507138,27.9477289 47.5507138,28.2932711 47.412,28.593 C47.07,29.313 46.647,29.88 44.199,30.474 C44.199,30.474 43.704,30.618 43.434,30.672 C43.974,29.232 45.333,27.648 46.647,27.333 Z M27.9,32.562 C27.8407596,32.5484979 27.7792404,32.5484979 27.72,32.562 C27.2181335,32.8486333 26.6945223,33.0953926 26.154,33.3 C25.5275254,33.5212175 24.8297893,33.3677156 24.354,32.904 C24.0237319,32.5025746 23.8974969,31.9710586 24.012,31.464 C24.0353673,31.3150021 24.0684376,31.1676888 24.111,31.023 L25.128,30.771 C26.811,30.33 28.611,29.934 29.628,28.593 C29.9076723,28.3017491 29.9759463,27.8669514 29.799,27.504 C29.5770746,27.1367139 29.1917904,26.8988428 28.764,26.865 C27.279,26.667 24.858,27.63 23.202,29.637 C22.4758201,30.4320214 22.1628637,31.5207103 22.356,32.58 C22.5815812,33.2409827 23.1332012,33.7381218 23.814,33.894 C25.2470687,34.0913218 26.7024744,33.7515134 27.9,32.94 C27.9745614,32.906693 28.0225725,32.8326624 28.0225725,32.751 C28.0225725,32.6693376 27.9745614,32.595307 27.9,32.562 L27.9,32.562 Z M27.468,27.333 C27.7660024,27.2281282 28.0952454,27.3636988 28.233,27.648 C28.3681445,27.9485047 28.3681445,28.2924953 28.233,28.593 C27.891,29.313 27.468,29.88 25.02,30.474 C25.02,30.474 24.525,30.618 24.246,30.672 C24.804,29.232 26.163,27.648 27.477,27.333 L27.468,27.333 Z M78.588,22.995 C78.2213469,23.1154988 77.9648151,23.4468524 77.94,23.832 C77.95824,24.0409545 78.066692,24.231567 78.237,24.354 C78.4300829,24.4613471 78.6649171,24.4613471 78.858,24.354 C79.1380274,24.2123388 79.3324321,23.9441943 79.38,23.634 C79.4238915,23.4264966 79.3555407,23.2111916 79.2,23.067 C79.0203172,22.9528035 78.7985188,22.9263201 78.597,22.995 L78.588,22.995 Z M74.394,27.09 L74.394,27.09 C74.205,27.162 74.214,27.486 74.475,27.432 L74.475,27.432 C75.294,27.306 75.636,27.279 75.78,27.432 C75.924,27.585 75.933,27.774 75.582,28.332 L73.458,31.743 C72.558,33.264 72.486,33.345 71.37,33.444 C71.199,33.444 71.199,33.768 71.37,33.768 L75.465,33.768 C75.681,33.768 75.636,33.444 75.465,33.444 C74.124,33.444 74.817,32.31 75.069,31.941 L76.5,29.583 C76.815,29.043 77.463,28.125 76.986,27.441 C76.509,26.757 75.087,27 74.403,27.09 L74.394,27.09 Z M70.056,33.39 C69.6058607,33.575364 69.12015,33.6583652 68.634,33.633 C68.2330493,33.6117107 67.881362,33.3584959 67.734,32.985 C67.266,31.716 69.075,28.638 70.092,27.423 L72.9,27.423 C72.9894701,27.423 73.062,27.3504701 73.062,27.261 C73.062,27.1715299 72.9894701,27.099 72.9,27.099 L70.281,27.099 L70.353,26.955 C71.5830444,25.2608566 73.0430727,23.7463044 74.691,22.455 C76.491,21.096 79.695,19.152 81.693,18.684 C83.206465,18.2621894 84.7990534,18.2097204 86.337,18.531 C86.4778054,18.6108275 86.6104406,18.7042749 86.733,18.81 C86.922,18.927 87.174,18.981 87.246,18.81 C87.318,18.639 86.652,18.342 86.409,18.243 C84.8288453,17.8294387 83.1647834,17.8637172 81.603,18.342 C79.0536734,19.1202759 76.6290297,20.2598585 74.403,21.726 C72.1481702,23.151534 70.176915,24.9824211 68.589,27.126 L66.681,27.126 C66.5915299,27.126 66.519,27.1985299 66.519,27.288 C66.519,27.3774701 66.5915299,27.45 66.681,27.45 L68.4,27.45 C68.067,27.963 67.734,28.476 67.419,28.98 L67.419,28.98 C66.519,30.384 65.925,31.734 66.438,32.958 C66.7090702,33.5996585 67.3260244,34.0273199 68.022,34.056 C68.7030535,34.1344737 69.3930286,34.0543873 70.038,33.822 C70.254,33.741 70.272,33.615 70.254,33.525 C70.236,33.435 70.11,33.363 70.065,33.354 L70.056,33.39 Z" id="Shape" fill="#6F7271" fill-rule="nonzero"></path>
                        <path d="M61.929,5.94 C61.929,6.012 60.795,5.274 60.435,5.562 C60.849,5.562 61.623,5.985 61.533,6.138 C61.167537,6.08778245 60.8064738,6.0095521 60.453,5.904 C60.1891101,5.86168897 59.9185935,5.902581 59.679,6.021 C60.174,6.165 60.687,6.273 60.669,6.282 C60.48,6.381 59.769,6.282 59.364,6.849 L58.563,7.749 L59.337,7.245 C62.037,5.661 63.837,6.885 63.927,6.93 C63.6148431,6.37434252 63.2338352,5.86028416 62.793,5.4 C62.937,5.706 62.172,5.814 62.172,5.814 C61.9486072,5.57444012 61.6943841,5.36561401 61.416,5.193 C61.2,5.112 61.875,5.67 61.929,5.94 Z M63.153,7.965 C63.333,8.388 63.45,8.739 63.297,8.775 C63.144,8.811 62.568,8.199 62.325,7.92 C62.4355188,8.20679208 62.4875398,8.51279795 62.478,8.82 L62.1,8.748 C62.1,8.748 61.425,8.199 61.2,8.226 C61.569,9.018 61.344,8.955 61.344,8.955 C61.0938335,8.83603754 60.8703436,8.66765473 60.687,8.46 C60.7866075,8.63051937 60.8738321,8.80797641 60.948,8.991 C60.948,8.991 60.813,9.135 60.741,9.054 C60.6278513,8.95520981 60.5075202,8.86496148 60.381,8.784 L60.273,9.171 C60.273,9.171 59.94,8.901 59.76,8.955 C59.58,9.009 59.706,9.234 59.634,9.288 C59.562,9.342 58.644,9.639 58.932,9.594 C59.526,9.486 60.462,9.351 60.876,9.288 C61.038,9.288 61.506,9.288 61.425,9.243 C62.8150842,8.98802349 64.2348929,9.50025472 65.142,10.584 L65.142,10.584 C65.0456946,9.97270331 64.8981752,9.37058358 64.701,8.784 C64.575,8.424 64.449,8.568 64.332,8.865 C64.215,9.162 63.846,9.027 63.846,9.027 C63.846,9.027 63.675,8.694 63.153,7.965 Z M56.475,16.065 C56.4285186,16.1368099 56.3741837,16.2032193 56.313,16.263 C56.25,16.326 55.98,15.678 55.872,15.723 C55.9774855,15.8954051 56.0218685,16.0982987 55.998,16.299 C55.737,16.479 55.458,16.848 55.422,16.839 C55.188,16.785 55.278,16.416 55.107,15.75 C54.783,15.993 54.954,16.65 54.927,17.226 C54.216,17.775 54.45,16.911 54.306,16.668 C53.892,16.812 54.162,17.244 54.009,17.703 C53.856,18.162 53.685,17.838 53.622,17.505 C53.19,17.82 53.496,17.847 53.325,18.477 C53.1,18.036 53.037,18.009 52.965,18.918 C52.668,19.449 52.65,18.819 52.668,18.567 C52.515,18.765 52.668,19.188 52.488,19.647 C52.488,19.764 52.335,19.431 52.245,19.521 C52.2095065,19.6957821 52.1914181,19.8736509 52.191,20.052 C51.894,20.583 51.714,20.295 51.732,20.052 C51.615,20.133 51.732,20.799 51.678,20.88 C51.5592643,21.0723414 51.3955679,21.2329492 51.201,21.348 C51.1357104,18.884094 52.1597302,16.5166654 54,14.877 C54,14.814 54.558,14.346 54.567,14.292 C54.576,14.238 54.081,14.436 54.036,14.472 C53.8817799,14.6556497 53.7517214,14.858299 53.649,15.075 C53.325,15.282 53.433,14.787 53.541,14.418 L53.271,14.85 C53.2300113,15.0935734 53.127815,15.322741 52.974,15.516 L52.623,15.606 C52.209,15.714 52.623,14.571 52.452,14.535 C52.281,14.499 52.2,15.525 51.84,15.777 C51.723,15.858 51.579,15.138 51.444,15.237 C51.309,15.336 50.895,16.056 50.769,16.137 C50.643,16.218 50.553,15.741 50.409,15.858 C50.1951012,16.0423736 50.0100454,16.2577664 49.86,16.497 C49.86,16.317 49.716,16.137 49.554,16.173 C49.248,16.551 48.654,16.857 48.717,16.785 C49.6154091,14.7576762 51.2926513,13.1777595 53.37,12.402 C54.0535231,12.2364198 54.7484545,12.1221021 55.449,12.06 C55.449,12.06 55.161,12.006 55.224,11.943 C55.467,11.574 54.324,12.087 54.09,12.06 C53.856,12.033 54.297,11.673 54.189,11.655 C54.081,11.637 53.739,12.06 53.631,12.132 C53.523,12.204 53.37,12.132 53.28,12.06 C53.19,11.988 53.37,11.583 53.415,11.484 C53.073,11.61 52.929,12.15 52.731,12.123 C52.533,12.096 52.659,11.646 52.731,11.43 C52.281,11.205 52.416,11.736 52.218,12.06 L51.606,11.916 L51.606,11.187 L50.958,11.79 C50.9899032,11.5291954 51.0502627,11.2726672 51.138,11.025 C50.76,11.358 50.661,11.691 50.553,11.655 C50.445,11.619 50.67,11.097 50.463,11.097 C50.256,11.097 49.959,11.646 49.824,11.637 L49.41,11.583 C49.4209451,11.3429033 49.4695373,11.1060161 49.554,10.881 C49.158,10.881 49.194,11.277 48.906,11.493 C48.852,11.538 48.24,11.493 48.195,11.493 C48.195,11.304 48.366,11.187 48.411,10.854 C48.051,10.935 47.772,11.583 47.25,11.538 C46.791,11.709 47.79,11.007 48.042,10.638 C47.916,10.638 46.971,11.322 46.818,11.358 C46.665,11.394 46.539,11.115 46.467,10.944 C50.004,7.902 55.53,9.486 55.8,9.405 C55.2218777,9.15036036 54.6185522,8.95729618 54,8.829 C53.928,8.685 54.675,8.604 54.774,8.532 C54.576,8.253 53.658,8.802 53.334,8.685 C53.01,8.568 53.82,8.37 53.631,8.28 C53.442,8.19 52.893,8.433 52.839,8.406 C52.641,8.316 52.362,8.235 52.263,8.181 C51.741,7.911 52.839,7.875 53.163,7.848 C52.938,7.632 52.74,7.776 52.38,7.758 C52.02,7.74 51.426,7.893 51.129,7.848 C51.903,7.389 52.299,7.587 51.975,7.263 C51.822,7.11 50.859,7.488 50.661,7.56 C50.463,7.632 51.381,6.786 51.201,6.786 C51.021,6.786 49.86,7.281 49.725,7.308 C50.0659389,6.9544209 50.4766161,6.67552814 50.931,6.489 C50.787,6.435 49.914,6.795 49.356,6.876 C49.23,6.876 49.104,6.714 49.023,6.723 C49.923,5.598 54.423,5.301 56.655,7.263 C56.799,6.912 55.872,6.156 55.359,5.931 C55.143,5.733 55.161,5.364 55.134,5.319 C55.107,5.274 56.25,5.805 56.25,5.805 C56.25,5.805 56.25,5.805 56.304,5.805 C56.3000975,5.78721152 56.3000975,5.76878848 56.304,5.751 C56.052,5.373 55.215,5.013 54.801,4.662 C54.693,4.572 55.593,4.788 55.368,4.662 C54.945,4.428 54.657,4.293 54.675,4.212 C55.0892935,4.20014742 55.4922166,4.34842314 55.8,4.626 C55.566,3.933 54.432,3.537 54.432,3.537 C54.585,3.348 55.485,3.42 55.665,3.537 C55.3001124,3.31491649 54.9213321,3.11650777 54.531,2.943 C54.3906925,2.65654838 54.2849499,2.35442676 54.216,2.043 C54.6427217,2.09838246 55.0451477,2.27307904 55.377,2.547 C54.981,2.043 54.477,1.701 54.63,1.728 C55.591403,1.83076403 56.4691524,2.32165347 57.06,3.087 C57.249,3.33 56.655,2.187 56.961,2.394 C57.5703762,2.96077809 58.0018787,3.69245617 58.203,4.5 C58.275,4.932 58.329,5.292 58.365,5.589 L58.365,5.589 C58.741907,4.62638175 59.6903396,4.01098652 60.723,4.059 C60.723,4.059 61.722,4.167 61.821,4.14 C58.5453954,0.934931957 53.6664555,0.00832790855 49.4438968,1.78935128 C45.221338,3.57037465 42.4797819,7.7112103 42.4889057,12.294 C42.4647331,18.278075 47.1257922,23.2356392 53.1,23.58 C54.9,21.339 56.412,18.18 56.646,15.75 C56.5821837,15.8480386 56.525054,15.9502707 56.475,16.056 L56.475,16.065 Z M65.196,11.943 C65.061,11.709 64.971,11.466 64.872,11.295 C64.773,11.691 64.998,11.88 64.998,12.348 C64.755,12.294 64.638,11.961 64.332,11.511 C64.206,11.511 64.233,12.114 64.215,12.294 C63.918,12.051 63.882,12.294 63.486,11.241 C63.405,11.178 63.243,11.025 63.243,11.025 C63.243,11.025 63.423,11.736 63.495,11.925 C63.252,12.096 62.415,11.673 62.415,11.673 C62.4080309,11.3773785 62.3626505,11.0839182 62.28,10.8 C62.091,10.953 62.145,11.493 62.145,11.502 L61.776,11.412 C61.7808079,11.4266147 61.7808079,11.4423853 61.776,11.457 C61.776,11.457 61.776,11.403 61.776,11.394 C61.7209274,11.0995834 61.5976317,10.8221681 61.416,10.584 C61.4316997,10.7756791 61.4316997,10.9683209 61.416,11.16 C61.416,11.16 61.065,10.89 60.903,10.917 C60.849,10.71 60.741,10.701 60.588,10.611 C60.588,10.89 60.471,10.764 60.633,10.881 L60.705,10.926 C62.173341,11.6936677 63.3075222,12.9752284 63.891,14.526 C64.1729684,15.2383733 64.3047221,16.0013187 64.278,16.767 C64.278,16.767 64.278,16.875 64.278,16.884 C64.9296017,15.4319381 65.2669729,13.8585613 65.268,12.267 C65.277,12.159 65.205,12.096 65.196,11.934 L65.196,11.943 Z M62.937,18.135 C62.694,17.901 62.802,17.379 62.937,17.055 C62.818717,17.1981461 62.7300049,17.3633341 62.676,17.541 C62.496,17.73 62.451,17.541 62.361,17.415 C62.181,17.001 62.532,16.893 62.496,16.416 C62.28,16.524 62.316,16.704 62.172,16.884 C62.028,17.064 62.172,16.101 62.244,15.876 C62.041263,16.0611327 61.9132229,16.314012 61.884,16.587 C61.551,16.425 61.812,15.687 61.677,15.453 C61.677,15.588 61.461,16.173 61.362,16.002 C61.2391084,15.6550864 61.1752236,15.2900305 61.173,14.922 C60.966,15.03 61.092,15.345 60.957,15.525 C60.822,15.705 60.768,15.21 60.768,15.21 C60.6990385,14.9352614 60.6990385,14.6477386 60.768,14.373 C60.453,14.544 60.525,15.021 60.525,15.021 L60.237,14.526 C60.237,14.526 60.291,13.428 60.156,13.806 C60.0870026,13.9718917 60.0474116,14.1485287 60.039,14.328 L60.039,14.256 C59.922,14.382 59.805,14.175 59.805,14.175 C59.805,14.175 59.526,13.905 59.409,13.977 C59.562,14.256 61.749,16.578 61.893,19.665 C61.8488899,19.5941884 61.7770313,19.5451939 61.695,19.53 C61.569,19.53 61.416,19.485 61.29,19.44 C61.220756,19.4175059 61.1586684,19.3771489 61.11,19.323 C61.0190823,19.1070866 60.9940323,18.8691118 61.038,18.639 C60.885,18.639 60.678,19.08 60.552,18.927 C60.497152,18.5907954 60.4700606,18.2506478 60.471,17.91 C60.4264579,18.0035095 60.3753292,18.0937366 60.318,18.18 C60.318,18.279 60.246,18.387 60.201,18.486 C60.1414412,18.3667258 60.0903159,18.2434237 60.048,18.117 C60.099731,17.8898305 60.120918,17.6567739 60.111,17.424 C60.111,17.424 59.859,17.784 59.841,17.838 C59.8370975,17.8557885 59.8370975,17.8742115 59.841,17.892 C59.6650628,17.7026837 59.5302324,17.4789877 59.445,17.235 L59.544,16.47 C59.544,16.47 59.292,16.983 59.202,16.866 C59.112,16.749 59.139,16.713 59.13,16.434 C59.13,16.299 59.13,15.93 59.13,15.921 C59.13,15.912 58.968,16.578 58.968,16.578 C58.968,16.578 58.698,15.579 58.482,15.489 C58.482,15.669 58.437,15.849 58.419,16.038 C58.1289512,18.549581 57.5521928,21.0196775 56.7,23.4 C59.4310203,22.7151112 61.8106675,21.0410198 63.378,18.702 L63.378,18.63 C63.153,18.252 63.549,17.82 63.603,17.334 C63.3963734,17.6105547 63.174006,17.8749916 62.937,18.126 L62.937,18.135 Z" id="Shape" fill="#FF9E18" fill-rule="nonzero"></path>
                    </g>
                </g>
            </g>
        </g>
    </g>
</svg>