<?xml version="1.0" encoding="UTF-8"?>
<svg width="131px" height="63px" viewBox="0 0 131 63" version="1.1" xmlns="http://www.w3.org/2000/svg" xmlns:xlink="http://www.w3.org/1999/xlink">
    <title>brands / el Dorado WHT</title>
    <defs>
        <filter id="filter-1">
            <feColorMatrix in="SourceGraphic" type="matrix" values="0 0 0 0 1.000000 0 0 0 0 1.000000 0 0 0 0 1.000000 0 0 0 1.000000 0"></feColorMatrix>
        </filter>
    </defs>
    <g id="Symbols" stroke="none" stroke-width="1" fill="none" fill-rule="evenodd">
        <g id="Footer-/-Corp" transform="translate(-122.000000, -103.000000)">
            <g id="brands-/-el-Dorado-WHT" transform="translate(122.000000, 103.000000)" filter="url(#filter-1)">
                <g>
                    <path d="M18.486,38.61 C16.2707076,41.6869615 12.6728413,43.463977 8.883,43.353 L5.103,43.353 L10.197,35.613 L11.502,35.613 C12.186,35.613 13.761,35.541 14.283,36.45 C14.688,37.134 14.166,38.25 13.428,39.402 C13.284,39.609 13.572,39.825 13.734,39.564 L18.486,32.4 C18.5213693,32.3453384 18.5248902,32.2759596 18.4952365,32.2179981 C18.4655828,32.1600366 18.4072595,32.122298 18.3422365,32.1189981 C18.2772135,32.1156982 18.2153693,32.1473384 18.18,32.202 C15.849,35.163 14.634,35.1 11.7,35.1 L10.404,35.1 L14.4,29.241 L18,29.241 C18.666,29.241 20.502,29.115 20.979,29.997 C21.456,30.879 20.646,32.256 19.89,33.597 C19.764,33.84 20.025,33.957 20.169,33.768 L23.238,29.124 C23.382,28.908 23.238,28.863 23.094,28.863 L9.9,28.863 C9.693,28.863 9.711,29.178 9.9,29.178 C11.565,29.178 11.997,29.223 12.114,29.556 C12.231,29.889 11.898,30.312 11.286,31.248 L4.5,41.4 C3.357,43.11 2.7,43.47 0.171,43.47 C-0.018,43.47 0.027,43.776 0.171,43.776 L15.471,43.776 L18.774,38.781 C18.918,38.592 18.63,38.421 18.486,38.61 M22.986,43.488 C21.699,43.488 21.582,42.759 22.014,42.039 C22.347,41.472 26.757,33.165 31.338,28.953 C33.8770043,26.3984187 37.3127681,24.9356359 40.914,24.876 C42.5033939,24.8115773 44.0821768,25.1620733 45.495,25.893 C45.7611878,26.0630673 46.0377248,26.2163649 46.323,26.352 C46.395,26.352 46.467,26.352 46.476,26.244 C46.476,25.983 46.017,25.722 45.738,25.56 C44.2715574,24.7851009 42.6249564,24.4153924 40.968,24.489 C37.368,24.489 33.426,26.226 30.105,28.791 C25.479,32.391 21.456,39.663 19.989,41.841 C19.278,42.903 18.945,43.362 17.496,43.488 C17.334,43.488 17.334,43.794 17.496,43.794 L22.986,43.794 C23.202,43.794 23.148,43.488 22.986,43.488 M55.782,44.388 C51.3,49.437 44.253,50.4 39.366,50.4 C40.5,48.042 46.107,29.187 56.403,24.849 C57.1648032,25.7672155 57.8284177,26.7626373 58.383,27.819 C59.149542,29.3700614 59.6572434,31.0360514 59.886,32.751 C60.642,39.537 56.088,44.109 55.8,44.451 M57.429,23.994 L57.492,24.066 L57.384,23.94 L57.384,23.94 L57.384,23.94 C54.0787936,20.0179961 49.5017061,17.3806764 44.451,16.488 C41.0807036,15.8782865 37.6173957,16.019646 34.308,16.902 L34.308,16.902 C31.455,17.613 29.277,18.819 28.008,20.502 C27.9,20.664 27.756,20.799 27.648,20.952 C27.5747069,21.0492254 27.5198045,21.1590302 27.486,21.276 C27.486,21.402 27.36,21.708 27.549,21.762 C27.738,21.816 27.9,21.6 27.9,21.519 C28.17,21.114 28.107,21.141 28.359,20.772 C29.3245213,19.486629 30.6733756,18.5411704 32.211,18.072 C35.7298994,16.9568197 39.4669727,16.712829 43.101,17.361 C48.1175323,18.1841167 52.7025482,20.6957148 56.097,24.48 C46.269,26.325 38.025,48.366 36.9,50.274 C35.8847406,50.2100167 34.8746524,50.0807494 33.876,49.887 C33.534,49.824 30.969,49.275 30.582,47.97 C30.537,47.799 30.519,47.763 30.438,47.763 C30.357,47.763 30.294,47.916 30.33,48.06 C30.6057203,48.8623827 31.2022011,49.5142742 31.977,49.86 C33.777,50.76 38.052,51.282 42.867,50.922 C45.936,50.688 58.068,48.942 60.984,39.024 C62.784,32.805 60.705,28.17 57.384,23.967 M118.17,43.074 C117.43742,45.6811982 115.569762,47.8199148 113.085,48.897 C112.334064,49.277869 111.469691,49.3707091 110.655,49.158 C110.134458,48.7949192 109.825056,48.1996556 109.826991,47.565 C109.887461,45.5571717 110.887235,43.6942594 112.527,42.534 C113.57175,41.6061955 114.840565,40.9671345 116.208,40.68 C116.769282,40.5576074 117.354855,40.7191448 117.774,41.112 C118.205739,41.6684345 118.343089,42.3987355 118.143,43.074 M114.417,40.311 C113.452051,40.4893153 112.514254,40.7918306 111.627,41.211 C109.431,42.336 107.901,43.965 107.64,46.134 C107.463473,47.1875492 107.886476,48.2519924 108.738,48.897 C110.331,50.193 113.553,49.662 114.75,49.329 C116.775,48.663 119.502,46.962 120.204,44.541 C120.527437,43.5472915 120.327751,42.4574753 119.673,41.643 C118.341,40.14 116.145,39.978 114.417,40.311 M85.617,48.834 C85.1585248,49.1145947 84.5814752,49.1145947 84.123,48.834 C83.8237995,48.49838 83.7214419,48.0309467 83.853,47.601 C84.285,45.171 87.678,41.877 89.874,40.95 C90.369,40.743 90.972,40.545 91.404,40.95 C91.7422088,41.2329636 91.8617824,41.7003875 91.701,42.111 C91.368,43.911 87.678,47.97 85.617,48.843 M92.952,48.843 C92.6516253,48.9991998 92.3303307,49.1113498 91.998,49.176 C91.641531,49.2540755 91.275976,49.0895757 91.098,48.771 C90.603,48.006 91.935,46.143 93.159,44.343 L95.526,40.851 C95.787,40.491 95.688,40.185 95.157,40.185 L94.194,40.185 C93.591,40.185 93.492,40.284 93.159,40.752 L92.331,41.814 C92.097,40.815 91.728,40.419 90.936,40.257 C89.1,39.816 85.5,41.4 83.43,43.542 C82.2041869,44.6529753 81.6277045,46.3112099 81.9,47.943 C82.0258007,48.740851 82.595033,49.3973889 83.367,49.635 C85.257,50.103 87.75,48.51 89.343,46.638 C89.1602909,47.4139143 89.2558499,48.2293505 89.613,48.942 C90.0630052,49.5741079 90.8395168,49.8868207 91.602,49.743 C92.1685653,49.6742329 92.7193706,49.5099042 93.231,49.257 C93.51,48.996 93.339,48.672 93.024,48.807 M78.948,44.775 C81.306,41.013 88.623,35.676 93.213,38.241 C93.726,38.529 94.014,38.799 94.401,38.988 C94.491,39.042 95.04,38.916 94.509,38.475 C92.034,36.378 85.914,35.982 80.343,41.724 C80.343,41.724 80.532,41.454 80.199,40.986 C79.623,40.086 77.607,40.347 76.662,40.518 L74.808,40.788 C74.6887065,40.8078823 74.6081177,40.9207065 74.628,41.04 C74.6478823,41.1592935 74.7607065,41.2398823 74.88,41.22 L76.68,40.986 C77.796,40.815 78.264,40.788 78.48,40.986 C78.696,41.184 78.678,41.454 78.21,42.219 L75.348,46.8 C74.709,47.502 74.025,49.032 71.748,49.095 C71.514,49.095 71.514,49.527 71.748,49.527 L78.93,49.527 C79.227,49.527 79.164,49.095 78.93,49.095 C77.13,49.095 76.788,48.087 77.535,47.061 L78.948,44.775 Z M103.95,42.777 C103.419,44.01 99.531,48.906 97.83,49.077 C97.4377888,49.1734802 97.0293375,48.9968526 96.831,48.645 C96.498,47.979 96.831,46.584 97.236,45.846 C98.262,43.821 101.124,41.022 103.077,40.689 C103.457537,40.5836723 103.864275,40.7145359 104.112,41.022 C104.409,41.427 104.247,42.084 103.95,42.75 M130.266,29.7 C130.17903,29.6151699 130.078688,29.545235 129.969,29.493 C129.798,29.412 129.618,29.367 129.438,29.277 C126.279,27.81 121.455,28.737 116.145,31.635 C111.786069,34.1690307 107.942326,37.4998671 104.814,41.454 C104.646237,40.8010597 104.110504,40.3076219 103.446,40.194 C101.817,39.861 98.46,41.094 96.471,43.29 C95.103,44.748 94.437,46.413 94.842,47.79 C95.0888982,48.6617581 95.7702419,49.3431018 96.642,49.59 C98.505,50.094 100.161,48.258 102.042,46.26 C101.893154,47.0924702 102.03621,47.9508024 102.447,48.69 C102.882544,49.3901134 103.678673,49.7811945 104.499,49.698 C105.405824,49.589908 106.263718,49.2280326 106.974,48.654 C106.974,48.654 106.974,48.402 106.659,48.447 C106.44862,48.4788385 106.246691,48.5522674 106.065,48.663 C105.683231,48.9157016 105.222713,49.021237 104.769,48.96 C104.386072,48.8935666 104.069184,48.6249007 103.941,48.258 C103.374,46.728 105.399,43.839 107.127,41.472 C109.736385,37.8494325 112.966171,34.717149 116.667,32.22 C121.32,29.286 126.567,28.188 129.267,29.691 C129.672,29.889 129.6,29.889 130.032,30.123 C130.131,30.177 130.347,30.231 130.446,30.123 C130.545,30.015 130.356,29.763 130.266,29.664 M70.866,43.02 C70.1334204,45.6271982 68.2657621,47.7659148 65.781,48.843 C65.0333506,49.2240736 64.1716909,49.3169663 63.36,49.104 C62.8407368,48.7387807 62.5291749,48.1458081 62.523,47.511 C62.5876326,45.5042896 63.5864727,43.6431175 65.223,42.48 C66.2721601,41.5535714 67.5434766,40.9148124 68.913,40.626 C69.4742822,40.5036074 70.0598551,40.6651448 70.479,41.058 C70.9090361,41.615384 71.0431406,42.3462533 70.839,43.02 M72.369,41.589 C71.037,40.086 68.85,39.924 67.122,40.257 C66.1567006,40.4339253 65.2187262,40.7364977 64.332,41.157 C62.136,42.282 60.606,43.92 60.336,46.08 C60.1636229,47.1331031 60.5858004,48.1954681 61.434,48.843 C63.027,50.139 66.258,49.608 67.455,49.275 C69.48,48.609 72.207,46.908 72.855,44.487 C73.1784374,43.4932915 72.9787506,42.4034753 72.324,41.589" id="Shape" fill="#717373" fill-rule="nonzero"></path>
                    <path d="M98.1,25.2 C97.749,24.876 97.902,24.12 98.1,23.67 C97.9317984,23.8705567 97.8062425,24.1032943 97.731,24.354 C97.47,24.624 97.407,24.354 97.281,24.183 C97.02,23.598 97.515,23.436 97.47,22.752 C97.164,22.905 97.209,23.166 97.011,23.418 C96.813,23.67 97.074,22.311 97.11,21.978 C96.8299148,22.2488582 96.6518925,22.6080817 96.606,22.995 C96.129,22.761 96.507,21.771 96.309,21.384 C96.309,21.582 96.003,22.41 95.859,22.176 C95.6880382,21.6774392 95.5969149,21.1549992 95.589,20.628 C95.292,20.781 95.481,21.231 95.283,21.483 C95.085,21.735 95.022,21.042 95.022,21.042 C94.9007662,20.6574746 94.8821509,20.2479382 94.968,19.854 C94.518,20.088 94.626,20.754 94.626,20.754 L94.203,20.043 C94.203,20.043 94.284,18.486 94.086,19.026 C93.9931953,19.2614474 93.9414456,19.5110635 93.933,19.764 C93.933,19.764 93.933,19.71 93.933,19.665 C93.762,19.845 93.6,19.557 93.6,19.557 C93.6,19.557 93.204,19.161 93.033,19.269 C93.258,19.656 96.363,22.968 96.57,27.369 C96.5108095,27.2650313 96.4086798,27.1925521 96.291,27.171 C96.0963993,27.1419232 95.9039675,27.0998288 95.715,27.045 C95.616555,27.0129049 95.5291934,26.9536238 95.463,26.874 C95.3288598,26.5685573 95.2911799,26.2294383 95.355,25.902 C95.148,25.956 94.851,26.532 94.662,26.316 C94.5860861,25.8368067 94.5499628,25.3521524 94.554,24.867 C94.4883587,24.9965287 94.4162684,25.1226868 94.338,25.245 C94.284,25.389 94.221,25.542 94.176,25.695 C94.082342,25.5221974 94.0040411,25.3415032 93.942,25.155 C94.024942,24.8350342 94.0553382,24.5037163 94.032,24.174 C93.9179158,24.3764464 93.7916851,24.5718034 93.654,24.759 L93.654,24.84 C93.4076333,24.5819162 93.2176127,24.2754313 93.096,23.94 L93.231,22.851 C93.231,22.851 92.88,23.589 92.745,23.418 C92.61,23.247 92.664,23.202 92.646,22.797 C92.646,22.617 92.646,22.086 92.646,22.068 C92.646,22.05 92.421,22.968 92.421,22.968 C92.421,22.968 92.034,21.555 91.728,21.42 C91.728,21.672 91.674,21.933 91.638,22.203 C91.196494,25.7807659 90.3448966,29.29587 89.1,32.679 C92.9873642,31.6997937 96.3736048,29.3140333 98.604,25.983 C98.5973995,25.9473025 98.5973995,25.9106975 98.604,25.875 C98.289,25.353 98.847,24.732 98.928,24.075 C98.6726127,24.4647429 98.396204,24.8402982 98.1,25.2 M101.304,16.389 C101.124,16.056 100.98,15.705 100.845,15.489 C100.71,16.056 101.025,16.326 101.016,16.983 C100.683,16.92 100.512,16.443 100.116,15.804 C99.927,15.804 99.963,16.704 99.945,16.92 C99.522,16.569 99.468,16.92 98.91,15.408 C98.7906883,15.3152876 98.6765189,15.2161405 98.568,15.111 C98.568,15.111 98.811,16.119 98.919,16.407 C98.577,16.641 97.38,16.038 97.38,16.038 C97.3695139,15.6295096 97.3059818,15.2241142 97.191,14.832 C96.921,15.048 97.002,15.813 97.002,15.822 L96.48,15.687 C96.48,15.687 96.48,15.732 96.48,15.759 C96.468,15.7302 96.468,15.6978 96.48,15.669 C96.4094686,15.2504266 96.2328511,14.8569103 95.967,14.526 C95.9931905,14.7953649 95.9931905,15.0666351 95.967,15.336 C95.967,15.336 95.472,14.958 95.238,14.994 C95.166,14.697 95.013,14.688 94.788,14.562 C94.725,14.958 94.626,14.769 94.851,14.94 L94.959,15.012 C97.0448132,16.1243429 98.6470672,17.966935 99.459,20.187 C99.8588253,21.1998293 100.042751,22.2849884 99.999,23.373 C99.999,23.373 99.999,23.526 99.999,23.544 C100.922143,21.4702121 101.400423,19.2259742 101.403,16.956 C101.403,16.731 101.295,16.641 101.286,16.416 M88.893,22.284 C88.8283728,22.3849082 88.7529262,22.478462 88.668,22.563 C88.569,22.653 88.182,21.726 88.038,21.798 C88.1834148,22.0449721 88.246457,22.3318143 88.218,22.617 C87.84,22.878 87.444,23.4 87.39,23.391 C87.066,23.31 87.192,22.788 86.949,21.834 C86.481,22.185 86.733,23.076 86.688,23.94 C85.671,24.723 86.022,23.49 85.788,23.139 C85.203,23.346 85.581,23.967 85.365,24.615 C85.014,25.101 84.915,24.813 84.825,24.336 C84.204,24.786 84.636,24.822 84.393,25.722 C84.069,25.083 83.979,25.047 83.88,26.352 C83.457,27.108 83.43,26.208 83.466,25.848 C83.241,26.127 83.466,26.748 83.196,27.378 C83.196,27.549 82.98,27.081 82.863,27.198 C82.8154868,27.4504091 82.7883991,27.7062377 82.782,27.963 C82.368,28.719 82.098,28.305 82.134,27.963 C81.963,28.08 82.134,29.025 82.053,29.142 C81.8858189,29.4165995 81.6501064,29.6430076 81.369,29.799 C81.2813074,26.3150038 82.7175207,22.9660304 85.302,20.628 C85.302,20.538 86.103,19.872 86.112,19.8 C86.112,19.575 85.419,20.007 85.356,20.061 C85.1332296,20.3151021 84.9483214,20.6000427 84.807,20.907 C84.339,21.213 84.501,20.502 84.654,20.007 L84.258,20.619 C84.2042078,20.9672738 84.0616289,21.2958251 83.844,21.573 L83.34,21.699 C82.746,21.843 83.34,20.223 83.106,20.178 C82.872,20.133 82.746,21.582 82.206,21.933 C82.035,22.059 81.837,21.033 81.639,21.177 C81.441,21.321 80.856,22.338 80.676,22.473 C80.496,22.608 80.37,21.924 80.163,22.077 C79.8619162,22.3370768 79.6010774,22.6403777 79.389,22.977 C79.389,22.707 79.182,22.455 78.957,22.509 C78.6560207,22.9210075 78.2393828,23.2342691 77.76,23.409 C79.0360147,20.495503 81.4342595,18.2205778 84.411,17.1 C85.3819335,16.8667322 86.3685299,16.7043048 87.363,16.614 C87.363,16.614 86.967,16.542 87.048,16.461 C87.399,15.93 85.707,16.659 85.446,16.614 C85.185,16.569 85.734,16.065 85.581,16.038 C85.428,16.011 84.942,16.614 84.789,16.722 C84.636,16.83 84.42,16.722 84.285,16.614 C84.15,16.506 84.42,15.939 84.474,15.795 C83.988,15.984 83.79,16.749 83.502,16.695 C83.214,16.641 83.403,16.02 83.502,15.705 C82.854,15.381 83.043,16.146 82.764,16.605 L81.864,16.407 L81.864,15.381 L81,16.2 C81.0368526,15.8285392 81.1184437,15.4628905 81.243,15.111 C80.712,15.588 80.568,16.056 80.424,16.011 C80.28,15.966 80.577,15.228 80.28,15.219 C79.983,15.21 79.569,16.011 79.38,15.993 C79.191,15.975 78.912,15.939 78.795,15.912 C78.8135403,15.5696489 78.8864523,15.2324306 79.011,14.913 C78.435,14.913 78.498,15.48 78.111,15.813 C78.03,15.876 77.211,15.813 77.103,15.867 C77.103,15.597 77.346,15.426 77.4,14.967 C76.896,15.084 76.5,16.011 75.762,15.948 C75.105,16.191 76.518,15.192 76.887,14.679 C76.698,14.679 75.357,15.651 75.141,15.696 C74.763,15.777 74.754,15.354 74.646,15.12 C79.677,10.773 87.525,13.041 87.921,12.915 C87.0917834,12.5524979 86.2257289,12.2809128 85.338,12.105 C85.23,11.889 86.292,11.781 86.427,11.673 C86.148,11.286 84.843,12.069 84.375,11.889 C83.907,11.709 85.077,11.448 84.807,11.322 C84.717,11.322 83.763,11.538 83.673,11.502 C83.394,11.367 82.998,11.25 82.854,11.178 C82.116,10.8 83.682,10.737 84.087,10.71 C83.763,10.395 83.475,10.602 82.98,10.575 C82.485,10.548 81.612,10.773 81.18,10.701 C82.278,10.044 82.854,10.332 82.386,9.873 C82.179,9.657 80.793,10.188 80.514,10.296 C80.235,10.404 81.54,9.198 81.297,9.198 C81.054,9.198 79.38,9.9 79.191,9.936 C79.6709789,9.43065238 80.2542157,9.03466529 80.901,8.775 C80.703,8.694 79.461,9.207 78.669,9.324 C78.48,9.324 78.309,9.09 78.201,9.099 C79.434,7.506 85.833,7.083 89.001,9.873 C89.208,9.369 87.894,8.298 87.201,7.983 C86.9968383,7.72747852 86.8857444,7.41006752 86.886,7.083 C86.778,6.867 88.461,7.767 88.461,7.767 C88.4874438,7.77475017 88.5155562,7.77475017 88.542,7.767 C88.5462152,7.74016452 88.5462152,7.71283548 88.542,7.686 C88.191,7.146 87.003,6.642 86.418,6.138 C86.265,6.003 87.543,6.318 87.219,6.138 C86.616,5.796 86.211,5.607 86.229,5.481 C86.8569189,5.4214421 87.4825247,5.61593096 87.966,6.021 C87.633,5.04 86.013,4.473 86.013,4.473 C86.229,4.203 87.516,4.302 87.813,4.473 C87.2939645,4.13672626 86.7527229,3.83603648 86.193,3.573 C85.9908984,3.15546299 85.84271,2.71392187 85.752,2.259 C86.357902,2.33286247 86.9297003,2.57970434 87.399,2.97 C86.832,2.259 86.121,1.764 86.337,1.809 C87.7165049,1.95348352 88.9727924,2.66809901 89.802,3.78 C90.072,4.131 89.226,2.448 89.667,2.79 C90.5441567,3.59029573 91.1695654,4.62847414 91.467,5.778 C91.566,6.399 91.647,6.903 91.701,7.326 C91.701,7.326 91.701,7.326 91.701,7.38 C92.2360956,6.01360148 93.5832402,5.14085463 95.049,5.211 C95.049,5.211 96.48,5.364 96.615,5.319 C91.5074542,0.230423955 83.6517134,-0.870400675 77.3422331,2.61830798 C71.0327527,6.10701663 67.7881217,13.3455834 69.382065,20.3769399 C70.9760083,27.4082965 77.0248898,32.5401101 84.222,32.967 C86.742,29.772 88.938,25.326 89.28,21.816 C89.28,21.753 88.992,22.248 88.992,22.248 M98.37,10.8 C98.631,11.412 98.793,11.907 98.586,11.961 C98.19,12.096 97.542,11.142 97.2,10.746 C97.3606951,11.1649379 97.4371551,11.6114645 97.425,12.06 L96.876,11.916 C96.876,11.916 95.922,11.142 95.571,11.178 C96.093,12.312 95.778,12.213 95.778,12.213 C95.4383772,12.0386155 95.1333912,11.8037762 94.878,11.52 C95.0207406,11.7587521 95.1441349,12.0085503 95.247,12.267 C95.247,12.267 95.067,12.465 94.959,12.357 C94.7946946,12.2193573 94.623472,12.0901893 94.446,11.97 L94.293,12.519 C94.293,12.519 93.816,12.141 93.564,12.213 C93.312,12.285 93.483,12.618 93.375,12.69 C93.267,12.762 91.971,13.194 92.385,13.122 L95.148,12.681 C95.382,12.681 96.048,12.636 95.931,12.618 C98.271,12.411 100.242,13.122 101.223,14.535 L101.223,14.535 C101.087588,13.6486705 100.876824,12.7755059 100.593,11.925 C100.422,11.412 100.233,11.628 100.071,12.051 C99.909,12.474 99.378,12.285 99.378,12.285 C99.378,12.285 99.144,11.862 98.388,10.809 M96.651,7.929 C96.651,8.037 95.04,7.029 94.527,7.389 C95.121,7.389 96.219,8.001 96.084,8.217 C95.5650229,8.14772139 95.0530811,8.03328734 94.554,7.875 C94.1811071,7.81947572 93.8001925,7.88243681 93.465,8.055 C94.158,8.253 94.896,8.406 94.869,8.424 C94.599,8.568 93.618,8.424 93.006,9.225 L91.872,10.53 L92.97,9.819 C96.867,7.56 99.387,9.306 99.495,9.369 C99.0585202,8.56831419 98.516697,7.82973953 97.884,7.173 C98.091,7.605 96.984,7.758 96.984,7.758 C96.6675341,7.41283061 96.3075137,7.1102925 95.913,6.858 C95.589,6.741 96.561,7.533 96.633,7.911" id="Shape" fill="#F99E29" fill-rule="nonzero"></path>
                    <path d="M19.089,60.3 C18.7390382,60.7080464 18.2394142,60.9578584 17.703,60.993 C17.4793424,61.0238963 17.2537796,61.0389338 17.028,61.038041 C16.6222422,61.0377787 16.2177637,60.9925013 15.822,60.903 C15.6492346,60.8611514 15.4805616,60.8039231 15.318,60.732 C15.1420798,60.6598639 14.9758057,60.5661458 14.823,60.453 C14.6496934,60.3205103 14.500511,60.1591498 14.382,59.976 L15.003,59.724 C15.0305526,59.7673009 15.0638568,59.8066604 15.102,59.841 C15.2879289,60.0146043 15.5046438,60.1519588 15.741,60.246 C16.1685627,60.397791 16.6193021,60.4739294 17.073,60.471 C17.5217955,60.4930343 17.9669089,60.3801886 18.351,60.147 C18.5498593,59.9987471 18.6667133,59.7650392 18.666,59.517 C18.667414,59.2610887 18.5094473,59.0313191 18.27,58.941 C17.7709139,58.8033978 17.2573996,58.7248603 16.74,58.707 C15.84,58.635 15.408,58.59 15.057,58.275 C14.8377852,58.0714927 14.7192749,57.7818009 14.733,57.483 C14.7272988,57.0339787 14.9790952,56.6213125 15.381,56.421 C15.8649219,56.1961138 16.3959096,56.0911511 16.929,56.115 C17.5600912,56.0857945 18.1858986,56.2422464 18.729,56.565 C18.8034217,56.611689 18.8727938,56.6659801 18.936,56.727 C19.0498557,56.8264912 19.1524679,56.9381574 19.242,57.06 L18.63,57.312 C18.5463912,57.2181532 18.4528434,57.1336584 18.351,57.06 C17.9224355,56.7854949 17.4194348,56.6503135 16.911,56.673 C16.5626158,56.6624635 16.2151527,56.7142782 15.885,56.826 C15.5923752,56.8999225 15.3812453,57.1547345 15.363,57.456 C15.361839,57.5577792 15.3899551,57.6577475 15.444,57.744 C15.6327923,57.9730183 15.9223586,58.0942321 16.218,58.068 C16.731,58.14 17.253,58.167 17.766,58.221 C18.2528065,58.2253068 18.7171094,58.426613 19.053,58.779 C19.2183775,58.9887098 19.3044319,59.2500603 19.296,59.517 C19.3099443,59.7931589 19.2375992,60.0668124 19.089,60.3 Z" id="Path" fill="#717373" fill-rule="nonzero"></path>
                    <path d="M23.832,60.3 C23.4638021,60.7504937 22.9005621,60.9952349 22.32,60.957 C21.8379033,60.9798294 21.3604116,60.8541737 20.952,60.597 L20.79,60.453 L20.79,62.199 L20.16,62.199 L20.16,57.699 L20.79,57.699 L20.79,58.041 C20.8905342,57.9609578 20.999118,57.8915848 21.114,57.834 C21.454199,57.684921 21.8226321,57.6112344 22.194,57.618 C22.7933632,57.5902038 23.3761262,57.8193803 23.796,58.248 C23.8711857,58.3373501 23.9374982,58.4338047 23.994,58.536 C24.1188424,58.7680133 24.180892,59.0286214 24.174,59.292 C24.1682968,59.655511 24.0486785,60.00807 23.832,60.3 L23.832,60.3 Z M23.229,58.5 C23.0474145,58.3004704 22.808452,58.1621237 22.545,58.104 C22.4077025,58.0843077 22.2682975,58.0843077 22.131,58.104 C21.7811512,58.0889363 21.4371267,58.1972403 21.159,58.41 C20.8925438,58.6308302 20.7457918,58.9643575 20.763,59.31 C20.7505059,59.5163073 20.8041001,59.7212265 20.916,59.895 C21.2114656,60.2768726 21.6759184,60.4889053 22.158,60.462 C22.3483068,60.4613079 22.5370703,60.4278176 22.716,60.363 C23.1928669,60.2037108 23.5079201,59.7494479 23.49,59.247 C23.5024753,58.9736753 23.4089787,58.7060817 23.229,58.5 L23.229,58.5 Z" id="Shape" fill="#717373" fill-rule="nonzero"></path>
                    <path d="M28.458,60.93 C27.909,60.93 27.855,60.624 27.828,60.381 C27.7887929,60.4553249 27.7370306,60.5223115 27.675,60.579 C27.2824809,60.8970856 26.7840322,61.0546598 26.28,61.02 C26.1271699,61.030198 25.9738301,61.030198 25.821,61.02 C25.5078873,60.988898 25.2167835,60.8449456 25.002,60.615 C24.8405608,60.4270333 24.7512377,60.1877752 24.75,59.94 C24.7225265,59.5484566 24.9519675,59.1842646 25.317,59.04 C25.832889,58.9016611 26.3681708,58.8499578 26.901,58.887 L27.801,58.887 C27.801,58.599 27.801,58.32 27.513,58.158 C27.2619608,58.0559327 26.9916765,58.0098616 26.721,58.023 C26.3717613,57.9951178 26.022527,58.0769204 25.722,58.257 C25.659,58.257 25.641,58.329 25.569,58.455 L24.939,58.392 C24.9691265,58.2797147 25.0177961,58.1732499 25.083,58.077 C25.1843453,57.9268677 25.328634,57.8108094 25.497,57.744 C25.8896303,57.6213712 26.3015823,57.5725472 26.712,57.6 C27.0147984,57.5984821 27.3167717,57.6316992 27.612,57.699 C27.8517349,57.7301705 28.0688499,57.8564778 28.2144427,58.049473 C28.3600356,58.2424682 28.4218633,58.485922 28.386,58.725 L28.386,59.904 C28.3681138,60.0444328 28.3681138,60.1865672 28.386,60.327 C28.386,60.426 28.503,60.516 28.728,60.516 L28.962,60.516 L28.962,60.957 L28.458,60.93 Z M26.64,59.4 C26.3054721,59.3709407 25.968538,59.4107602 25.65,59.517 C25.4885246,59.5923462 25.3838466,59.7528524 25.38,59.931 C25.38,60.255 25.677,60.57 26.28,60.57 C26.4208141,60.5802403 26.5621859,60.5802403 26.703,60.57 C27.0999315,60.5217801 27.4554853,60.3012051 27.675,59.967 C27.7579021,59.8026086 27.7981357,59.6200099 27.792,59.436 L26.64,59.4 Z" id="Shape" fill="#717373" fill-rule="nonzero"></path>
                    <path d="M36.351,60.903 L34.767,59.022 L32.499,59.022 L32.499,60.903 L31.833,60.903 L31.833,56.214 L35.028,56.214 C35.2762348,56.2001048 35.5251318,56.2243874 35.766,56.286 C36.373684,56.4217951 36.7930684,56.9784326 36.756,57.6 C36.777144,58.1151071 36.4755815,58.588991 36,58.788 C35.8353953,58.8527245 35.6628602,58.8951016 35.487,58.914 L37.224,60.903 L36.351,60.903 Z M35.946,57.15 C35.748,56.799 35.433,56.772 35.046,56.772 L32.49,56.772 L32.49,58.5 L34.812,58.5 C35.2069459,58.5567384 35.6058724,58.4270873 35.892,58.149 C36.0126587,58.0062456 36.0738743,57.8225987 36.063,57.636 C36.0706747,57.466202 36.0301098,57.2977017 35.946,57.15 Z" id="Shape" fill="#717373" fill-rule="nonzero"></path>
                    <path d="M38.16,59.4 C38.1771004,59.6802641 38.299219,59.943783 38.502,60.138 C38.7973601,60.4054912 39.1835838,60.5503251 39.582,60.543 C39.9703884,60.5543801 40.3468928,60.4083223 40.626,60.138 C40.7021803,60.0461785 40.7685418,59.9466363 40.824,59.841 L41.427,60.003 C41.3821762,60.1057262 41.3247342,60.2024706 41.256,60.291 C41.0938264,60.5157613 40.8769874,60.6954279 40.626,60.813 C40.2728525,60.9730321 39.8886701,61.0529421 39.501,61.047 C39.0010758,61.0999357 38.5017934,60.9413948 38.1239888,60.6097473 C37.7461842,60.2780998 37.5242868,59.8035689 37.512,59.301 C37.5161632,59.0947811 37.5557394,58.8908119 37.629,58.698 C37.8781017,58.0970515 38.4320743,57.677271 39.078,57.6 C39.2128701,57.5916242 39.3481299,57.5916242 39.483,57.6 C40.1075398,57.578227 40.707696,57.8434894 41.112,58.32 C41.3100284,58.5560509 41.4378713,58.8429177 41.481,59.148 C41.4853264,59.2319443 41.4853264,59.3160557 41.481,59.4 L38.16,59.4 Z M40.302,58.284 C40.1961715,58.2142105 40.0810407,58.1596748 39.96,58.122 C39.8194609,58.082745 39.6738776,58.0645471 39.528,58.068 C39.0426923,58.0400153 38.5793955,58.2733796 38.313,58.68 C38.2580878,58.7536234 38.2155308,58.8356974 38.187,58.923 L40.779,58.923 C40.7109955,58.6434332 40.5408376,58.3994332 40.302,58.239 L40.302,58.284 Z" id="Shape" fill="#717373" fill-rule="nonzero"></path>
                    <path d="M45.81,60.372 C45.414,61.065 44.145,61.02 44.118,61.02 C43.3281405,61.0483419 42.5516412,60.810638 41.913,60.345 L42.453,59.985 C42.559264,60.0667812 42.6704756,60.1419241 42.786,60.21 C43.194699,60.3993103 43.6406208,60.4946453 44.091,60.489 C44.4034553,60.4861541 44.7123063,60.4219376 45,60.3 C45.1481422,60.2390938 45.249176,60.0997369 45.261,59.94 C45.2430204,59.8023105 45.1370011,59.6926354 45,59.67 C44.4500018,59.5280412 43.8849736,59.4525027 43.317,59.445 C43.0229977,59.4314933 42.7376031,59.3415319 42.489,59.184 C42.2889474,59.0417252 42.1739353,58.8083181 42.183,58.563 C42.1874134,58.2200648 42.3863491,57.9094459 42.696,57.762 C43.1068509,57.606067 43.5436136,57.5297099 43.983,57.537 C44.4970602,57.5217997 45.0069892,57.633057 45.468,57.861 C45.613672,57.9328976 45.74727,58.0270234 45.864,58.14 L45.315,58.446 C44.900316,58.1862353 44.4181468,58.0547346 43.929,58.068 C43.616781,58.0383765 43.302928,58.1042856 43.029,58.257 C42.937325,58.3077222 42.8804274,58.4042286 42.8804274,58.509 C42.8804274,58.6137714 42.937325,58.7102778 43.029,58.761 C43.5235191,58.9032372 44.0354327,58.975935 44.55,58.977 C44.8792233,58.968385 45.2049834,59.045947 45.495,59.202 C45.7369545,59.3605539 45.8798862,59.6328048 45.873,59.922 C45.8878482,60.0748707 45.8662583,60.2290842 45.81,60.372 L45.81,60.372 Z" id="Path" fill="#717373" fill-rule="nonzero"></path>
                    <path d="M50.526,60.129 C50.1007347,60.7387179 49.3865951,61.0804114 48.645,61.029 C48.3410869,61.0309196 48.0383207,60.99156 47.745,60.912 C47.0295206,60.7384387 46.517747,60.1088467 46.4939607,59.373 C46.4918348,59.0552903 46.5791668,58.7433901 46.746,58.473 C47.1830266,57.8950579 47.8761008,57.5687074 48.6,57.6 C49.007867,57.5955943 49.4122698,57.6752494 49.788,57.834 C49.9059081,57.891211 50.0175143,57.9605878 50.121,58.041 C50.2197614,58.1217901 50.3102099,58.2122386 50.391,58.311 C50.614657,58.5952181 50.7323947,58.9484313 50.724,59.31 C50.7293117,59.5954608 50.6611284,59.8774917 50.526,60.129 L50.526,60.129 Z M49.968,58.716 C49.6423408,58.2960322 49.1305154,58.0636904 48.6,58.095 C48.2189605,58.0866387 47.8468148,58.2106872 47.547,58.446 C47.2861798,58.6703175 47.1433897,59.0023874 47.16,59.346 C47.1560768,59.5649419 47.2223053,59.779396 47.349,59.958 C47.67745,60.3473548 48.1731063,60.5549946 48.681,60.516 C48.9998005,60.5169568 49.3121739,60.4263686 49.581,60.255 C49.8997757,60.0650612 50.0998957,59.7258749 50.112,59.355 C50.1258192,59.1326341 50.0758611,58.910945 49.968,58.716 L49.968,58.716 Z" id="Shape" fill="#717373" fill-rule="nonzero"></path>
                    <path d="M53.334,58.167 C53.217,58.167 52.434,58.167 52.263,58.725 C52.2229993,58.8623104 52.204778,59.0050441 52.209,59.148 L52.209,60.948 L51.579,60.948 L51.579,57.708 L52.2,57.708 L52.2,58.068 C52.2550395,58.0114363 52.3153081,57.9602079 52.38,57.915 C52.7021855,57.7082565 53.0771879,57.5988808 53.46,57.5999915 C53.5848625,57.6014038 53.7089712,57.619566 53.829,57.654 L53.829,58.275 C53.6715123,58.2105645 53.5040148,58.1740196 53.334,58.167 Z" id="Path" fill="#717373" fill-rule="nonzero"></path>
                    <path d="M55.71,58.095 L55.71,59.823 C55.71,59.823 55.71,59.967 55.71,60.075 C55.71,60.183 55.809,60.39 56.151,60.39 C56.3037842,60.4014912 56.4572158,60.4014912 56.61,60.39 L56.61,60.948 C56.4032274,60.9617224 56.1957726,60.9617224 55.989,60.948 C55.7343207,60.9717073 55.480153,60.8977091 55.278,60.741 C55.116,60.579 55.089,60.408 55.089,60.003 L55.089,58.095 L54.54,58.095 L54.54,57.663 L55.107,57.663 L55.107,56.538 L55.728,56.538 L55.728,57.663 L56.628,57.663 L56.628,58.095 L55.71,58.095 Z" id="Path" fill="#717373" fill-rule="nonzero"></path>
                    <path d="M61.389,60.372 C60.993,61.065 59.724,61.02 59.697,61.02 C58.9071405,61.0483419 58.1306412,60.810638 57.492,60.345 L58.032,59.985 C58.138264,60.0667812 58.2494756,60.1419241 58.365,60.21 C58.773699,60.3993103 59.2196208,60.4946453 59.67,60.489 C59.977641,60.4935573 60.2832577,60.4385463 60.57,60.327 C60.7181422,60.2660938 60.819176,60.1267369 60.831,59.967 C60.8314602,59.8342771 60.7486793,59.7155045 60.624,59.67 C60.0741361,59.527354 59.5090245,59.4518043 58.941,59.445 C58.6469977,59.4314933 58.3616031,59.3415319 58.113,59.184 C57.9129474,59.0417252 57.7979353,58.8083181 57.807,58.563 C57.8114134,58.2200648 58.0103491,57.9094459 58.32,57.762 C58.7308509,57.606067 59.1676136,57.5297099 59.607,57.537 C60.1210602,57.5217997 60.6309892,57.633057 61.092,57.861 C61.237672,57.9328976 61.37127,58.0270234 61.488,58.14 L60.939,58.446 C60.524316,58.1862353 60.0421468,58.0547346 59.553,58.068 C59.2408457,58.0395078 58.9273239,58.1053474 58.653,58.257 C58.561325,58.3077222 58.5044274,58.4042286 58.5044274,58.509 C58.5044274,58.6137714 58.561325,58.7102778 58.653,58.761 C59.1475191,58.9032372 59.6594327,58.975935 60.174,58.977 C60.4880337,58.976065 60.7973514,59.0533944 61.074,59.202 C61.3159545,59.3605539 61.4588862,59.6328048 61.452,59.922 C61.4668482,60.0748707 61.4452583,60.2290842 61.389,60.372 L61.389,60.372 Z" id="Path" fill="#717373" fill-rule="nonzero"></path>
                    <path d="M68.193,60.3 C67.7866312,60.7619466 67.1863416,61.0053974 66.573,60.957 C66.2103357,60.9753984 65.8487131,60.9043102 65.52,60.75 C65.3872684,60.6896784 65.2655834,60.6075411 65.16,60.507 L65.16,60.876 L64.53,60.876 L64.53,56.214 L65.16,56.214 L65.16,58.014 C65.2698492,57.903727 65.4017183,57.8178587 65.547,57.762 C65.8808742,57.6277513 66.2412128,57.5723146 66.6,57.6 C66.8223441,57.5957128 67.0439998,57.6260766 67.257,57.69 C68.0362484,57.831396 68.5971488,58.5182129 68.58,59.31 C68.5588305,59.6725982 68.4233513,60.0191728 68.193,60.3 L68.193,60.3 Z M67.5,58.41 C67.2003143,58.1559907 66.8112707,58.0327935 66.42,58.068 C66.2147498,58.0785187 66.0132813,58.1273595 65.826,58.212 C65.3840348,58.3949026 65.1010699,58.8318864 65.115,59.31 C65.1097982,59.4784819 65.1469307,59.6455783 65.223,59.796 C65.5070584,60.2406974 66.010406,60.4958188 66.537,60.462 C66.8330408,60.4652546 67.1247539,60.3907747 67.383,60.246 C67.7073418,60.0337685 67.9008172,59.6705779 67.896,59.283 C67.8970926,58.9482896 67.7525565,58.6296531 67.5,58.41 L67.5,58.41 Z" id="Shape" fill="#717373" fill-rule="nonzero"></path>
                    <path d="M71.019,61.2 C70.8462909,61.7248603 70.3367668,62.0633033 69.786,62.019 C69.5380259,62.014857 69.2909694,61.987741 69.048,61.938 L69.048,61.38 C69.2658392,61.4366322 69.489107,61.4698206 69.714,61.479 C70.11,61.479 70.281,61.326 70.497,60.921 L68.85,57.654 L69.57,57.654 L70.839,60.3 L72.153,57.681 L72.9,57.681 L71.019,61.2 Z" id="Path" fill="#717373" fill-rule="nonzero"></path>
                    <polygon id="Path" fill="#717373" fill-rule="nonzero" points="79.857 60.903 77.733 58.374 76.284 59.445 76.284 60.903 75.6 60.903 75.6 56.214 76.257 56.214 76.257 58.707 79.641 56.214 80.613 56.214 78.246 58.014 80.712 60.939"></polygon>
                    <path d="M84.6,60.93 C84.042,60.93 83.997,60.624 83.97,60.381 C83.9284685,60.4538023 83.8769709,60.5204463 83.817,60.579 C83.4244809,60.8970856 82.9260322,61.0546598 82.422,61.02 C82.2721929,61.0307588 82.1218071,61.0307588 81.972,61.02 C81.6556958,60.9910259 81.3610453,60.8469034 81.144,60.615 C80.9825608,60.4270333 80.8932377,60.1877752 80.892,59.94 C80.8645265,59.5484566 81.0939675,59.1842646 81.459,59.04 C81.974889,58.9016611 82.5101708,58.8499578 83.043,58.887 L83.943,58.887 C83.943,58.599 83.943,58.32 83.655,58.158 C83.4039608,58.0559327 83.1336765,58.0098616 82.863,58.023 C82.5137613,57.9951178 82.164527,58.0769204 81.864,58.257 C81.801,58.257 81.783,58.329 81.711,58.455 L81.081,58.392 C81.1111265,58.2797147 81.1597961,58.1732499 81.225,58.077 C81.3263453,57.9268677 81.470634,57.8108094 81.639,57.744 C82.0144699,57.627863 82.4075346,57.5791108 82.8,57.6 C83.1027984,57.5984821 83.4047717,57.6316992 83.7,57.699 C83.9397349,57.7301705 84.1568499,57.8564778 84.3024427,58.049473 C84.4480356,58.2424682 84.5098633,58.485922 84.474,58.725 L84.474,59.904 C84.4561138,60.0444328 84.4561138,60.1865672 84.474,60.327 C84.474,60.426 84.591,60.516 84.816,60.516 L85.05,60.516 L85.05,60.957 L84.6,60.93 Z M82.8,59.4 C82.4654721,59.3709407 82.128538,59.4107602 81.81,59.517 C81.6485246,59.5923462 81.5438466,59.7528524 81.54,59.931 C81.54,60.255 81.837,60.57 82.44,60.57 C82.611,60.57 82.818,60.57 82.863,60.57 C83.2599315,60.5217801 83.6154853,60.3012051 83.835,59.967 C83.9179021,59.8026086 83.9581357,59.6200099 83.952,59.436 L82.8,59.4 Z" id="Shape" fill="#717373" fill-rule="nonzero"></path>
                    <path d="M87.444,58.167 C87.336,58.167 86.544,58.167 86.373,58.725 C86.3329993,58.8623104 86.314778,59.0050441 86.319,59.148 L86.319,60.948 L85.689,60.948 L85.689,57.708 L86.319,57.708 L86.319,58.068 C86.3761026,58.0136863 86.4361964,57.9626066 86.499,57.915 C86.8198328,57.7126064 87.1906791,57.6035339 87.57,57.6 C87.6978629,57.6008141 87.8250237,57.6189799 87.948,57.654 L87.948,58.275 C87.7870706,58.2115675 87.6167908,58.175079 87.444,58.167 Z" id="Path" fill="#717373" fill-rule="nonzero"></path>
                    <path d="M88.452,57.114 L88.452,56.475 L89.1,56.475 L89.1,57.114 L88.452,57.114 Z M88.452,60.903 L88.452,57.663 L89.082,57.663 L89.082,60.903 L88.452,60.903 Z" id="Shape" fill="#717373" fill-rule="nonzero"></path>
                    <path d="M93.6,60.372 C93.204,61.065 91.935,61.02 91.908,61.02 C91.1158174,61.0448504 90.3375753,60.8075815 89.694,60.345 L90.243,59.985 C90.3460058,60.0712006 90.457591,60.1465961 90.576,60.21 C90.9813614,60.3997546 91.4244658,60.4951451 91.872,60.489 C92.1796039,60.4931067 92.4851352,60.4381111 92.772,60.327 C92.9175582,60.2628525 93.0172919,60.1252889 93.033,59.967 C93.0297658,59.8333001 92.9488954,59.7137526 92.826,59.661 C92.2714459,59.5281599 91.7041416,59.455738 91.134,59.445 C90.8402149,59.4302763 90.555123,59.3404103 90.306,59.184 C90.1084461,59.0396121 89.9941332,58.8076242 90,58.563 C90.0060712,58.2180126 90.2088424,57.9068637 90.522,57.762 C90.9299719,57.6069783 91.3636146,57.5306328 91.8,57.537 C92.3168477,57.522872 92.8294374,57.634036 93.294,57.861 C93.439672,57.9328976 93.57327,58.0270234 93.69,58.14 L93.141,58.446 C92.7260997,58.1867293 92.2440823,58.05527 91.755,58.068 C91.4429107,58.0406112 91.1297083,58.1063837 90.855,58.257 C90.7698729,58.3123923 90.7189529,58.4074429 90.72,58.509 C90.7208827,58.6147147 90.7796137,58.7114482 90.873,58.761 C91.3675191,58.9032372 91.8794327,58.975935 92.394,58.977 C92.7081729,58.9749113 93.0177715,59.052311 93.294,59.202 C93.5359545,59.3605539 93.6788862,59.6328048 93.672,59.922 C93.6870033,60.0756929 93.6622084,60.230661 93.6,60.372 Z" id="Path" fill="#717373" fill-rule="nonzero"></path>
                    <path d="M100.611,60.903 L100.611,59.256 C100.629941,59.0418706 100.59914,58.8262606 100.521,58.626 C100.304742,58.2742739 99.905559,58.0781839 99.495,58.122 C99.0253879,58.0831784 98.5702116,58.2953658 98.298,58.68 C98.2236402,58.8465598 98.1926774,59.0292398 98.208,59.211 L98.208,60.903 L97.578,60.903 L97.578,59.238 C97.5821908,59.0742979 97.5640232,58.9107895 97.524,58.752 C97.3636636,58.3342735 96.9430714,58.0760152 96.498,58.122 C96.149613,58.1174277 95.8089385,58.2246771 95.526,58.428 C95.4250997,58.5042134 95.3395857,58.5988896 95.274,58.707 C95.1992427,58.8797948 95.168327,59.0683806 95.184,59.256 L95.184,60.903 L94.545,60.903 L94.545,57.663 L95.184,57.663 L95.184,58.104 C95.2581065,58.0272947 95.3394887,57.9579692 95.427,57.897 C95.7868195,57.6855194 96.1976695,57.5765819 96.615,57.582 C97.003015,57.5746751 97.3846902,57.6810661 97.713,57.888 C97.8112968,57.9758705 97.9016473,58.0722444 97.983,58.176 C98.0635988,58.0911421 98.150879,58.0128908 98.244,57.942 C98.6347544,57.6901702 99.0934562,57.5644984 99.558,57.582 C100.207957,57.5206194 100.832818,57.8489362 101.151,58.419 C101.23203,58.6560565 101.262684,58.9074174 101.241,59.157 L101.241,60.903 L100.611,60.903 Z" id="Path" fill="#717373" fill-rule="nonzero"></path>
                    <path d="M105.75,60.93 C105.201,60.93 105.147,60.624 105.12,60.381 C105.078469,60.4538023 105.026971,60.5204463 104.967,60.579 C104.574481,60.8970856 104.076032,61.0546598 103.572,61.02 C103.422193,61.0307588 103.271807,61.0307588 103.122,61.02 C102.805696,60.9910259 102.511045,60.8469034 102.294,60.615 C102.132561,60.4270333 102.043238,60.1877752 102.042,59.94 C102.014526,59.5484566 102.243967,59.1842646 102.609,59.04 C103.124889,58.9016611 103.660171,58.8499578 104.193,58.887 L105.093,58.887 C105.093,58.599 105.093,58.32 104.805,58.158 C104.553961,58.0559327 104.283677,58.0098616 104.013,58.023 C103.663761,57.9951178 103.314527,58.0769204 103.014,58.257 C102.951,58.257 102.933,58.329 102.861,58.455 L102.231,58.392 C102.261126,58.2797147 102.309796,58.1732499 102.375,58.077 C102.476345,57.9268677 102.620634,57.8108094 102.789,57.744 C103.171374,57.6155156 103.573911,57.5575746 103.977,57.573 C104.279798,57.5714821 104.581772,57.6046992 104.877,57.672 C105.116735,57.7031705 105.33385,57.8294778 105.479443,58.022473 C105.625036,58.2154682 105.686863,58.458922 105.651,58.698 L105.651,59.877 C105.633114,60.0174328 105.633114,60.1595672 105.651,60.3 C105.651,60.399 105.768,60.489 105.993,60.489 L106.227,60.489 L106.227,60.93 L105.75,60.93 Z M103.95,59.364 C103.615472,59.3349407 103.278538,59.3747602 102.96,59.481 C102.798525,59.5563462 102.693847,59.7168524 102.69,59.895 C102.69,60.219 102.987,60.534 103.59,60.534 C103.761,60.534 103.968,60.534 104.013,60.534 C104.409931,60.4857801 104.765485,60.2652051 104.985,59.931 C105.067902,59.7666086 105.108136,59.5840099 105.102,59.4 L103.95,59.364 Z" id="Shape" fill="#717373" fill-rule="nonzero"></path>
                </g>
            </g>
        </g>
    </g>
</svg>